<svg xmlns="http://www.w3.org/2000/svg" width="1200" height="675" viewBox="0 0 1200 675" role="img" aria-label="WHagons  Semana del nuevo WHagons (1/5)">
  <defs>
    <linearGradient id="bg1" x1="0" y1="0" x2="1" y2="1">
      <stop offset="0" stop-color="#6f47ff" stop-opacity="0.95"/>
      <stop offset="0.55" stop-color="#23ddff" stop-opacity="0.65"/>
      <stop offset="1" stop-color="#ff61d5" stop-opacity="0.65"/>
    </linearGradient>
    <filter id="blur1" x="-20%" y="-20%" width="140%" height="140%">
      <feGaussianBlur stdDeviation="32"/>
    </filter>
    <linearGradient id="glass1" x1="0" y1="0" x2="0" y2="1">
      <stop offset="0" stop-color="#ffffff" stop-opacity="0.14"/>
      <stop offset="1" stop-color="#ffffff" stop-opacity="0.06"/>
    </linearGradient>
  </defs>

  <rect width="1200" height="675" fill="#0b1220"/>
  <rect width="1200" height="675" fill="url(#bg1)"/>
  <circle cx="260" cy="450" r="210" fill="#000" opacity="0.18" filter="url(#blur1)"/>
  <circle cx="980" cy="190" r="240" fill="#000" opacity="0.16" filter="url(#blur1)"/>

  <path d="M0 520 C220 460 360 570 520 530 C720 480 900 610 1200 530 L1200 675 L0 675 Z" fill="#000" opacity="0.16"/>

  <g>
    <rect x="70" y="60" width="1060" height="555" rx="28" fill="url(#glass1)" stroke="#fff" stroke-opacity="0.16"/>
    <rect x="70" y="60" width="1060" height="84" rx="28" fill="#000" opacity="0.12"/>
    <circle cx="112" cy="102" r="10" fill="#ffffff" opacity="0.28"/>
    <circle cx="145" cy="102" r="10" fill="#ffffff" opacity="0.22"/>
    <circle cx="178" cy="102" r="10" fill="#ffffff" opacity="0.18"/>

    <text x="100" y="112" font-family="ui-sans-serif, system-ui, -apple-system, Segoe UI, Roboto, Arial" font-size="18" fill="#fff" opacity="0.92" font-weight="700">
      WHagons
    </text>
    <text x="100" y="204" font-family="ui-sans-serif, system-ui, -apple-system, Segoe UI, Roboto, Arial" font-size="18" fill="#fff" opacity="0.82" font-weight="700">
      Semana del nuevo WHagons
    </text>
    <text x="100" y="262" font-family="ui-sans-serif, system-ui, -apple-system, Segoe UI, Roboto, Arial" font-size="56" fill="#fff" opacity="0.96" font-weight="900">
      M?s orden.
    </text>
    <text x="100" y="326" font-family="ui-sans-serif, system-ui, -apple-system, Segoe UI, Roboto, Arial" font-size="56" fill="#fff" opacity="0.96" font-weight="900">
      M?s control.
    </text>
    <text x="100" y="390" font-family="ui-sans-serif, system-ui, -apple-system, Segoe UI, Roboto, Arial" font-size="56" fill="#fff" opacity="0.96" font-weight="900">
      M?s foco.
    </text>

    <g opacity="0.92">
      <rect x="100" y="448" width="360" height="54" rx="16" fill="#000" opacity="0.24" stroke="#fff" stroke-opacity="0.14"/>
      <text x="126" y="483" font-family="ui-sans-serif, system-ui, -apple-system, Segoe UI, Roboto, Arial" font-size="18" fill="#fff" opacity="0.92" font-weight="800">
        Teaser 1/5  Nuevo WHagons
      </text>
    </g>
    <text x="100" y="538" font-family="ui-sans-serif, system-ui, -apple-system, Segoe UI, Roboto, Arial" font-size="20" fill="#fff" opacity="0.75">
      Workspaces  Custom fields  KPIs  Aprobaciones  SLAs  Motivaci?n
    </text>

    <g transform="translate(760, 230)" opacity="0.92">
      <rect x="0" y="0" width="320" height="220" rx="20" fill="#000" opacity="0.22" stroke="#fff" stroke-opacity="0.12"/>
      <rect x="22" y="24" width="190" height="16" rx="8" fill="#fff" opacity="0.22"/>
      <rect x="22" y="58" width="250" height="54" rx="14" fill="#fff" opacity="0.10"/>
      <rect x="22" y="126" width="250" height="54" rx="14" fill="#fff" opacity="0.10"/>
      <rect x="236" y="24" width="62" height="16" rx="8" fill="#fff" opacity="0.16"/>
    </g>
  </g>
</svg>
