<?xml version="1.0" encoding="UTF-8"?>
<svg id="Capa_1" data-name="Capa 1" xmlns="http://www.w3.org/2000/svg" viewBox="0 0 2000 500">
  <defs>
    <style>
      .cls-1 {
        fill: #d2320c;
      }
    </style>
  </defs>
  <path class="cls-1" d="M171.59,340.39c-25.8,0-51.6-9.7-71.29-29.01l-67.88-66.93c24.77-24.4,65.02-24.4,89.79,0l22.94,22.6c14.53,14.31,38.18,14.31,52.71,0l103.6-101.96c24.77-24.39,65.02-24.39,89.79,0l-148.45,146.21c-19.61,19.39-45.41,29.09-71.21,29.09Z"/>
  <path class="cls-1" d="M339.64,340.39c-25.8,0-51.6-9.7-71.29-29.01l-16.04-15.79,44.93-44.25,16.04,15.79c14.53,14.31,38.19,14.31,52.71,0l103.52-102.04c24.77-24.39,65.02-24.39,89.79,0l-148.45,146.21c-19.61,19.39-45.41,29.09-71.21,29.09Z"/>
  <path class="cls-1" d="M708.16,341.44l-55.52-192.87h53.48l32.73,152.25,34.48-152.25h45.59l35.36,151.95,32.14-151.95h51.72l-55.81,192.87h-54.65l-22.79-93.51-8.77-47.05h-.58l-8.47,47.05-22.5,93.51h-56.4ZM958.91,341.44v-208.06h49.68v88.54c4.29-9.74,10.42-17.05,18.41-21.92,7.99-5.07,17.24-7.6,27.75-7.6,15,0,27.18,4.38,36.53,13.15,9.35,8.77,14.03,21.63,14.03,38.57v97.31h-49.68v-83.58c0-10.52-1.94-17.73-5.83-21.63-3.71-4.09-8.67-6.14-14.91-6.14-7.01,0-13.15,2.73-18.41,8.18-5.26,5.26-7.89,14.03-7.89,26.3v76.85h-49.68ZM1221.65,248.81c0-6.82-1.95-12.18-5.85-16.07-3.7-4.09-8.76-6.14-15.19-6.14s-11.99,1.66-16.67,4.97c-4.48,3.12-7.59,8.77-9.35,16.95l-42.07-9.94c2.73-14.03,9.93-25.23,21.61-33.6,11.7-8.38,28.15-12.57,49.38-12.57s38,4.77,49.68,14.32c11.88,9.35,17.83,23.08,17.83,41.2v53.48c0,7.6,3.4,11.4,10.23,11.4,3.5,0,6.33-.39,8.48-1.17l-2.92,28.35c-5.85,2.73-12.95,4.09-21.33,4.09-9.15,0-17.05-1.75-23.68-5.26-6.63-3.7-11.1-9.25-13.43-16.66-4.1,7.6-10.62,13.25-19.58,16.95-8.77,3.51-18.12,5.26-28.05,5.26-15,0-26.98-3.41-35.95-10.23-8.76-7.01-13.15-17.05-13.15-30.1,0-10.52,3.12-19.19,9.35-26.01,6.44-7.01,16.47-11.88,30.1-14.61l50.56-10.52v-4.09ZM1180.74,299.36c0,4.29,1.55,7.5,4.68,9.64,3.11,2.14,6.82,3.22,11.1,3.22,6.63,0,12.47-1.95,17.53-5.84,5.07-4.09,7.6-10.42,7.6-19v-8.18l-23.68,4.97c-5.83,1.17-10.23,2.92-13.15,5.26-2.73,2.14-4.08,5.46-4.08,9.94ZM1401.94,309.01c16.95,0,29.9,3.6,38.87,10.81,9.15,7.01,13.73,17.14,13.73,30.39,0,18.31-7.3,31.85-21.92,40.62-14.41,8.96-33.89,13.44-58.44,13.44-26.49,0-45.58-3.31-57.27-9.93-11.7-6.62-17.54-15.59-17.54-26.88,0-6.62,2.15-12.27,6.43-16.95,4.49-4.68,11.6-7.89,21.34-9.64-14.22-5.26-21.34-15.1-21.34-29.51,0-6.82,2.05-12.76,6.14-17.83,4.08-5.26,9.73-9.06,16.95-11.4-15.6-8.57-23.38-21.92-23.38-40.03,0-15.78,6.13-27.96,18.41-36.53,12.47-8.77,29.9-13.15,52.31-13.15,11.3,0,21.53,1.17,30.68,3.51.78-7.01,2.73-13.54,5.85-19.58,3.31-6.04,7.78-10.91,13.43-14.61,5.85-3.9,12.95-5.84,21.34-5.84.58,0,1.26.1,2.03.29h2.63l4.1,33.31c-2.15-.58-4.48-.88-7.01-.88-6.82,0-12.28,1.36-16.37,4.09-4.08,2.73-6.82,6.23-8.18,10.52,14.61,8.57,21.91,21.53,21.91,38.87,0,15.78-6.23,27.96-18.7,36.53-12.26,8.57-29.51,12.86-51.72,12.86-10.13,0-19.28-.88-27.48-2.63-6.43,1.95-9.63,5.36-9.63,10.23,0,6.62,5.45,9.93,16.36,9.93h46.46ZM1376.23,220.76c-6.43,0-11.7,1.85-15.78,5.55-3.9,3.7-5.85,8.96-5.85,15.78s1.95,11.79,5.85,15.49c4.08,3.7,9.35,5.55,15.78,5.55s11.4-1.85,15.48-5.55c4.1-3.7,6.14-8.86,6.14-15.49s-2.05-12.08-6.14-15.78c-4.08-3.7-9.25-5.55-15.48-5.55ZM1374.48,372.13c14.03,0,24.45-1.46,31.26-4.38,7.02-2.73,10.52-6.23,10.52-10.52,0-2.92-1.17-5.26-3.5-7.01-2.15-1.56-5.95-2.34-11.4-2.34h-52.31c-3.7,0-6.72.97-9.05,2.92-2.15,1.95-3.22,4.38-3.22,7.31,0,4.48,3.32,7.89,9.94,10.23,6.61,2.53,15.88,3.8,27.76,3.8ZM1543.84,192.41c15.4,0,28.83,3.02,40.33,9.06,11.68,6.04,20.75,14.71,27.18,26.01,6.63,11.3,9.93,24.94,9.93,40.91s-3.31,29.61-9.93,40.91c-6.43,11.3-15.5,19.97-27.18,26.01-11.5,6.04-24.93,9.06-40.33,9.06s-28.63-3.02-40.33-9.06c-11.48-6.04-20.54-14.71-27.16-26.01-6.44-11.3-9.65-24.94-9.65-40.91s3.21-29.61,9.65-40.91c6.63-11.3,15.68-19.97,27.16-26.01,11.7-6.04,25.14-9.06,40.33-9.06ZM1543.84,227.77c-8.57,0-15.28,3.22-20.16,9.64-4.68,6.23-7.02,16.56-7.02,30.98s2.34,24.55,7.02,30.98c4.87,6.43,11.58,9.64,20.16,9.64s15.5-3.21,20.17-9.64c4.86-6.43,7.3-16.75,7.3-30.98s-2.44-24.74-7.3-30.98c-4.68-6.43-11.4-9.64-20.17-9.64ZM1649.23,341.44v-146.11h44.41l1.46,29.51c4.49-10.72,11.02-18.8,19.58-24.25,8.57-5.46,18.7-8.18,30.4-8.18,15,0,27.18,4.38,36.53,13.15,9.35,8.77,14.03,21.63,14.03,38.57v97.31h-49.68v-84.16c0-10.13-1.95-17.14-5.85-21.04-3.9-3.9-8.86-5.84-14.9-5.84-7.2,0-13.43,2.53-18.7,7.6-5.06,5.06-7.6,13.73-7.6,26.01v77.44h-49.67ZM1891.8,344.36c-14.61,0-28.15-2.34-40.61-7.01-12.47-4.87-22.9-11.79-31.27-20.75l23.38-27.47c4.87,6.24,11.3,11.49,19.28,15.78,8.19,4.09,17.25,6.14,27.18,6.14,6.05,0,11-.88,14.9-2.63,3.9-1.75,5.85-4.48,5.85-8.18,0-2.53-.97-4.68-2.92-6.43-1.95-1.75-5.85-3.21-11.68-4.38l-20.45-4.09c-18.32-3.7-31.37-9.16-39.16-16.36-7.6-7.4-11.4-17.05-11.4-28.93,0-7.99,2.43-15.59,7.3-22.79,4.87-7.21,12.37-13.15,22.5-17.83,10.13-4.68,23.08-7.01,38.86-7.01,30.2,0,52.21,8.38,66.04,25.13l-23.66,26.88c-4.68-5.85-10.72-10.42-18.12-13.73-7.4-3.31-14.8-4.97-22.21-4.97-14.22,0-21.33,3.6-21.33,10.81,0,2.53,1.17,4.77,3.5,6.72,2.53,1.95,7.11,3.51,13.73,4.68l26.6,5.26c15,2.92,25.81,7.99,32.43,15.2,6.63,7.01,9.93,15.59,9.93,25.71,0,14.22-5.74,26.2-17.23,35.94-11.3,9.55-28.45,14.32-51.43,14.32Z"/>
</svg>