<svg xmlns="http://www.w3.org/2000/svg" width="1200" height="675" viewBox="0 0 1200 675" role="img" aria-label="WHagons  KPIs y Motivación (5/5)">
  <defs>
    <linearGradient id="bg" x1="0" y1="0" x2="1" y2="1">
      <stop offset="0" stop-color="#f59e0b" stop-opacity="0.62"/>
      <stop offset="0.55" stop-color="#ff61d5" stop-opacity="0.58"/>
      <stop offset="1" stop-color="#23ddff" stop-opacity="0.62"/>
    </linearGradient>
    <filter id="blur" x="-20%" y="-20%" width="140%" height="140%">
      <feGaussianBlur stdDeviation="28"/>
    </filter>
    <linearGradient id="glass" x1="0" y1="0" x2="0" y2="1">
      <stop offset="0" stop-color="#ffffff" stop-opacity="0.14"/>
      <stop offset="1" stop-color="#ffffff" stop-opacity="0.06"/>
    </linearGradient>
  </defs>

  <rect width="1200" height="675" fill="#0b1220"/>
  <rect width="1200" height="675" fill="url(#bg)"/>
  <circle cx="250" cy="520" r="240" fill="#000" opacity="0.14" filter="url(#blur)"/>
  <circle cx="980" cy="170" r="240" fill="#000" opacity="0.12" filter="url(#blur)"/>

  <g>
    <rect x="70" y="60" width="1060" height="555" rx="28" fill="url(#glass)" stroke="#fff" stroke-opacity="0.16"/>
    <text x="100" y="150" font-family="ui-sans-serif, system-ui, -apple-system, Segoe UI, Roboto, Arial" font-size="18" fill="#fff" opacity="0.82" font-weight="800">
      Teaser 5/5  KPIs + Motivación
    </text>
    <text x="100" y="220" font-family="ui-sans-serif, system-ui, -apple-system, Segoe UI, Roboto, Arial" font-size="54" fill="#fff" opacity="0.96" font-weight="900">
      Progreso visible.
    </text>
    <text x="100" y="284" font-family="ui-sans-serif, system-ui, -apple-system, Segoe UI, Roboto, Arial" font-size="54" fill="#fff" opacity="0.96" font-weight="900">
      Acción constante.
    </text>
    <text x="100" y="352" font-family="ui-sans-serif, system-ui, -apple-system, Segoe UI, Roboto, Arial" font-size="24" fill="#fff" opacity="0.75">
      KPIs claros + motivación con propósito.
    </text>

    <g transform="translate(610, 150)" opacity="0.92">
      <rect x="0" y="0" width="480" height="390" rx="22" fill="#000" opacity="0.22" stroke="#fff" stroke-opacity="0.12"/>
      <rect x="24" y="24" width="200" height="18" rx="9" fill="#fff" opacity="0.18"/>
      <rect x="24" y="56" width="320" height="14" rx="7" fill="#fff" opacity="0.12"/>

      <g transform="translate(24, 96)">
        <rect x="0" y="0" width="210" height="110" rx="18" fill="#fff" opacity="0.09"/>
        <rect x="18" y="18" width="120" height="12" rx="6" fill="#fff" opacity="0.18"/>
        <text x="18" y="74" font-family="ui-sans-serif, system-ui, -apple-system, Segoe UI, Roboto, Arial" font-size="34" fill="#fff" opacity="0.92" font-weight="900">92%</text>
        <rect x="18" y="82" width="140" height="10" rx="5" fill="#fff" opacity="0.10"/>
        <path d="M150 60 L170 42 L188 50" stroke="#22c55e" stroke-width="6" fill="none" stroke-linecap="round" stroke-linejoin="round"/>
      </g>

      <g transform="translate(250, 96)">
        <rect x="0" y="0" width="206" height="110" rx="18" fill="#fff" opacity="0.09"/>
        <rect x="18" y="18" width="132" height="12" rx="6" fill="#fff" opacity="0.18"/>
        <text x="18" y="74" font-family="ui-sans-serif, system-ui, -apple-system, Segoe UI, Roboto, Arial" font-size="34" fill="#fff" opacity="0.92" font-weight="900">7.4</text>
        <rect x="18" y="82" width="140" height="10" rx="5" fill="#fff" opacity="0.10"/>
        <circle cx="176" cy="52" r="18" fill="#f59e0b" opacity="0.92"/>
      </g>

      <g transform="translate(24, 226)">
        <rect x="0" y="0" width="432" height="64" rx="18" fill="#fff" opacity="0.09"/>
        <rect x="18" y="16" width="220" height="14" rx="7" fill="#fff" opacity="0.18"/>
        <rect x="18" y="36" width="280" height="10" rx="5" fill="#fff" opacity="0.12"/>
        <rect x="330" y="18" width="92" height="28" rx="14" fill="#ff61d5" opacity="0.78"/>
        <text x="348" y="38" font-family="ui-sans-serif, system-ui, -apple-system, Segoe UI, Roboto, Arial" font-size="13" fill="#0b1220" font-weight="900">LOGRO</text>
      </g>

      <g transform="translate(24, 306)">
        <rect x="0" y="0" width="432" height="60" rx="18" fill="#fff" opacity="0.09"/>
        <rect x="18" y="18" width="260" height="14" rx="7" fill="#fff" opacity="0.18"/>
        <rect x="18" y="38" width="210" height="10" rx="5" fill="#fff" opacity="0.12"/>
        <rect x="330" y="18" width="92" height="28" rx="14" fill="#23ddff" opacity="0.78"/>
        <text x="352" y="38" font-family="ui-sans-serif, system-ui, -apple-system, Segoe UI, Roboto, Arial" font-size="13" fill="#0b1220" font-weight="900">RACHA</text>
      </g>
    </g>
  </g>
</svg>
