<svg xmlns="http://www.w3.org/2000/svg" width="1200" height="675" viewBox="0 0 1200 675" role="img" aria-label="WHagons  Workspaces (2/5)">
  <defs>
    <linearGradient id="bg2" x1="0" y1="0" x2="1" y2="1">
      <stop offset="0" stop-color="#0ea5e9" stop-opacity="0.85"/>
      <stop offset="0.55" stop-color="#6f47ff" stop-opacity="0.72"/>
      <stop offset="1" stop-color="#22c55e" stop-opacity="0.62"/>
    </linearGradient>
    <filter id="blur2" x="-20%" y="-20%" width="140%" height="140%">
      <feGaussianBlur stdDeviation="28"/>
    </filter>
    <linearGradient id="glass2" x1="0" y1="0" x2="0" y2="1">
      <stop offset="0" stop-color="#ffffff" stop-opacity="0.14"/>
      <stop offset="1" stop-color="#ffffff" stop-opacity="0.06"/>
    </linearGradient>
  </defs>

  <rect width="1200" height="675" fill="#0b1220"/>
  <rect width="1200" height="675" fill="url(#bg2)"/>
  <circle cx="280" cy="170" r="220" fill="#000" opacity="0.15" filter="url(#blur2)"/>
  <circle cx="980" cy="520" r="240" fill="#000" opacity="0.12" filter="url(#blur2)"/>

  <g>
    <rect x="70" y="60" width="1060" height="555" rx="28" fill="url(#glass2)" stroke="#fff" stroke-opacity="0.16"/>
    <text x="100" y="150" font-family="ui-sans-serif, system-ui, -apple-system, Segoe UI, Roboto, Arial" font-size="18" fill="#fff" opacity="0.82" font-weight="800">
      Teaser 2/5  Workspaces
    </text>
    <text x="100" y="220" font-family="ui-sans-serif, system-ui, -apple-system, Segoe UI, Roboto, Arial" font-size="58" fill="#fff" opacity="0.96" font-weight="900">
      Menos ruido.
    </text>
    <text x="100" y="288" font-family="ui-sans-serif, system-ui, -apple-system, Segoe UI, Roboto, Arial" font-size="58" fill="#fff" opacity="0.96" font-weight="900">
      M?s contexto.
    </text>
    <text x="100" y="356" font-family="ui-sans-serif, system-ui, -apple-system, Segoe UI, Roboto, Arial" font-size="24" fill="#fff" opacity="0.75">
      Organiza equipos y ?reas sin mezclarlo todo.
    </text>

    <g transform="translate(640, 160)" opacity="0.92">
      <rect x="0" y="0" width="450" height="360" rx="22" fill="#000" opacity="0.22" stroke="#fff" stroke-opacity="0.12"/>

      <rect x="24" y="24" width="140" height="32" rx="16" fill="#fff" opacity="0.12"/>
      <text x="48" y="45" font-family="ui-sans-serif, system-ui, -apple-system, Segoe UI, Roboto, Arial" font-size="14" fill="#fff" opacity="0.72" font-weight="800">Operaci?n</text>

      <rect x="178" y="24" width="170" height="32" rx="16" fill="#fff" opacity="0.10"/>
      <text x="202" y="45" font-family="ui-sans-serif, system-ui, -apple-system, Segoe UI, Roboto, Arial" font-size="14" fill="#fff" opacity="0.70" font-weight="800">Comercial</text>

      <rect x="362" y="24" width="64" height="32" rx="16" fill="#fff" opacity="0.08"/>

      <rect x="24" y="82" width="402" height="74" rx="18" fill="#fff" opacity="0.09"/>
      <rect x="24" y="170" width="402" height="74" rx="18" fill="#fff" opacity="0.09"/>
      <rect x="24" y="258" width="402" height="74" rx="18" fill="#fff" opacity="0.09"/>

      <circle cx="60" cy="119" r="10" fill="#23ddff" opacity="0.9"/>
      <circle cx="60" cy="207" r="10" fill="#22c55e" opacity="0.85"/>
      <circle cx="60" cy="295" r="10" fill="#6f47ff" opacity="0.85"/>

      <rect x="84" y="105" width="240" height="18" rx="9" fill="#fff" opacity="0.20"/>
      <rect x="84" y="128" width="180" height="14" rx="7" fill="#fff" opacity="0.14"/>

      <rect x="84" y="193" width="260" height="18" rx="9" fill="#fff" opacity="0.20"/>
      <rect x="84" y="216" width="160" height="14" rx="7" fill="#fff" opacity="0.14"/>

      <rect x="84" y="281" width="220" height="18" rx="9" fill="#fff" opacity="0.20"/>
      <rect x="84" y="304" width="200" height="14" rx="7" fill="#fff" opacity="0.14"/>
    </g>
  </g>
</svg>
