<svg xmlns="http://www.w3.org/2000/svg" width="1200" height="675" viewBox="0 0 1200 675" role="img" aria-label="WHagons  Custom fields (3/5)">
  <defs>
    <linearGradient id="bg3" x1="0" y1="0" x2="1" y2="1">
      <stop offset="0" stop-color="#ff61d5" stop-opacity="0.70"/>
      <stop offset="0.55" stop-color="#f59e0b" stop-opacity="0.58"/>
      <stop offset="1" stop-color="#6f47ff" stop-opacity="0.75"/>
    </linearGradient>
    <filter id="blur3" x="-20%" y="-20%" width="140%" height="140%">
      <feGaussianBlur stdDeviation="26"/>
    </filter>
    <linearGradient id="glass3" x1="0" y1="0" x2="0" y2="1">
      <stop offset="0" stop-color="#ffffff" stop-opacity="0.14"/>
      <stop offset="1" stop-color="#ffffff" stop-opacity="0.06"/>
    </linearGradient>
  </defs>

  <rect width="1200" height="675" fill="#0b1220"/>
  <rect width="1200" height="675" fill="url(#bg3)"/>
  <circle cx="240" cy="520" r="240" fill="#000" opacity="0.14" filter="url(#blur3)"/>
  <circle cx="980" cy="170" r="220" fill="#000" opacity="0.13" filter="url(#blur3)"/>

  <g>
    <rect x="70" y="60" width="1060" height="555" rx="28" fill="url(#glass3)" stroke="#fff" stroke-opacity="0.16"/>
    <text x="100" y="150" font-family="ui-sans-serif, system-ui, -apple-system, Segoe UI, Roboto, Arial" font-size="18" fill="#fff" opacity="0.82" font-weight="800">
      Teaser 3/5  Custom fields
    </text>
    <text x="100" y="220" font-family="ui-sans-serif, system-ui, -apple-system, Segoe UI, Roboto, Arial" font-size="56" fill="#fff" opacity="0.96" font-weight="900">
      Flexible.
    </text>
    <text x="100" y="286" font-family="ui-sans-serif, system-ui, -apple-system, Segoe UI, Roboto, Arial" font-size="56" fill="#fff" opacity="0.96" font-weight="900">
      Pero ordenado.
    </text>
    <text x="100" y="354" font-family="ui-sans-serif, system-ui, -apple-system, Segoe UI, Roboto, Arial" font-size="24" fill="#fff" opacity="0.75">
      Captura lo que importa sin Excel infinito.
    </text>

    <g transform="translate(620, 150)" opacity="0.92">
      <rect x="0" y="0" width="470" height="390" rx="22" fill="#000" opacity="0.22" stroke="#fff" stroke-opacity="0.12"/>
      <rect x="24" y="24" width="210" height="18" rx="9" fill="#fff" opacity="0.18"/>
      <rect x="24" y="54" width="320" height="14" rx="7" fill="#fff" opacity="0.12"/>

      <g transform="translate(24, 96)">
        <rect x="0" y="0" width="422" height="56" rx="16" fill="#fff" opacity="0.09"/>
        <rect x="18" y="16" width="160" height="12" rx="6" fill="#fff" opacity="0.18"/>
        <rect x="18" y="34" width="240" height="10" rx="5" fill="#fff" opacity="0.12"/>
        <rect x="316" y="16" width="88" height="24" rx="12" fill="#f59e0b" opacity="0.85"/>
      </g>

      <g transform="translate(24, 166)">
        <rect x="0" y="0" width="422" height="56" rx="16" fill="#fff" opacity="0.09"/>
        <rect x="18" y="16" width="120" height="12" rx="6" fill="#fff" opacity="0.18"/>
        <rect x="18" y="34" width="220" height="10" rx="5" fill="#fff" opacity="0.12"/>
        <rect x="302" y="16" width="102" height="24" rx="12" fill="#6f47ff" opacity="0.85"/>
      </g>

      <g transform="translate(24, 236)">
        <rect x="0" y="0" width="422" height="56" rx="16" fill="#fff" opacity="0.09"/>
        <rect x="18" y="16" width="180" height="12" rx="6" fill="#fff" opacity="0.18"/>
        <rect x="18" y="34" width="210" height="10" rx="5" fill="#fff" opacity="0.12"/>
        <rect x="288" y="16" width="116" height="24" rx="12" fill="#23ddff" opacity="0.85"/>
      </g>

      <g transform="translate(24, 306)">
        <rect x="0" y="0" width="422" height="56" rx="16" fill="#fff" opacity="0.09"/>
        <rect x="18" y="16" width="140" height="12" rx="6" fill="#fff" opacity="0.18"/>
        <rect x="18" y="34" width="260" height="10" rx="5" fill="#fff" opacity="0.12"/>
        <rect x="330" y="16" width="74" height="24" rx="12" fill="#ff61d5" opacity="0.75"/>
      </g>
    </g>
  </g>
</svg>
