<svg width="203" height="44" viewBox="0 0 203 44" fill="none" xmlns="http://www.w3.org/2000/svg">
<mask id="path-1-outside-1_28_2" maskUnits="userSpaceOnUse" x="65" y="5" width="131" height="33" fill="black">
<rect fill="white" x="65" y="5" width="131" height="33"/>
<path d="M67.11 8.28H71.19L76.59 23.76L76.02 23.52L80.22 12.75L81.84 17.49L75.84 31.02L67.11 8.28ZM77.82 8.28H81.27L87.27 23.43L86.58 23.31L91.56 8.28H95.31L86.79 30.96L77.82 8.28ZM98.7202 30V6.6H102.02V20.1L101.96 19.59C102.4 18.77 103.05 18.1 103.91 17.58C104.77 17.04 105.8 16.77 107 16.77C108.2 16.77 109.19 17.12 109.97 17.82C110.75 18.52 111.15 19.44 111.17 20.58V30H107.81V21.78C107.79 21.14 107.61 20.63 107.27 20.25C106.93 19.85 106.39 19.64 105.65 19.62C104.97 19.62 104.36 19.83 103.82 20.25C103.28 20.67 102.85 21.24 102.53 21.96C102.23 22.66 102.08 23.46 102.08 24.36V30H98.7202ZM121.14 30.33C119.94 30.33 118.85 30.08 117.87 29.58C116.91 29.08 116.15 28.34 115.59 27.36C115.03 26.36 114.75 25.13 114.75 23.67C114.75 22.23 115.04 21 115.62 19.98C116.22 18.94 117 18.14 117.96 17.58C118.94 17.02 120 16.74 121.14 16.74C122.36 16.74 123.34 16.98 124.08 17.46C124.84 17.94 125.43 18.51 125.85 19.17L125.67 19.65L126 17.31H129.09V30H125.73V26.91L126.06 27.72C125.98 27.84 125.82 28.04 125.58 28.32C125.34 28.58 125.01 28.87 124.59 29.19C124.17 29.51 123.67 29.78 123.09 30C122.53 30.22 121.88 30.33 121.14 30.33ZM122.07 27.57C122.67 27.57 123.21 27.46 123.69 27.24C124.19 27.02 124.61 26.71 124.95 26.31C125.31 25.91 125.57 25.43 125.73 24.87V22.11C125.57 21.59 125.31 21.14 124.95 20.76C124.59 20.36 124.15 20.05 123.63 19.83C123.13 19.61 122.57 19.5 121.95 19.5C121.27 19.5 120.64 19.67 120.06 20.01C119.48 20.35 119.01 20.82 118.65 21.42C118.31 22.02 118.14 22.71 118.14 23.49C118.14 24.25 118.32 24.94 118.68 25.56C119.04 26.18 119.52 26.67 120.12 27.03C120.72 27.39 121.37 27.57 122.07 27.57ZM140.06 36.33C139.02 36.33 138.13 36.21 137.39 35.97C136.65 35.73 135.99 35.41 135.41 35.01C134.85 34.63 134.32 34.23 133.82 33.81L135.8 31.5C136.38 32.04 136.99 32.49 137.63 32.85C138.29 33.21 139.08 33.39 140 33.39C140.82 33.39 141.53 33.25 142.13 32.97C142.75 32.69 143.23 32.3 143.57 31.8C143.91 31.3 144.09 30.7 144.11 30V26.85L144.32 27.48C143.98 28.26 143.36 28.93 142.46 29.49C141.56 30.05 140.44 30.33 139.1 30.33C137.94 30.33 136.87 30.04 135.89 29.46C134.91 28.86 134.13 28.05 133.55 27.03C132.97 26.01 132.68 24.86 132.68 23.58C132.68 22.26 132.98 21.09 133.58 20.07C134.2 19.03 135.01 18.22 136.01 17.64C137.03 17.04 138.11 16.74 139.25 16.74C140.37 16.74 141.36 16.94 142.22 17.34C143.1 17.74 143.76 18.24 144.2 18.84L144.02 19.32L144.38 17.31H147.47V30.06C147.47 31.24 147.15 32.3 146.51 33.24C145.89 34.2 145.02 34.95 143.9 35.49C142.8 36.05 141.52 36.33 140.06 36.33ZM136.07 23.49C136.07 24.25 136.24 24.94 136.58 25.56C136.94 26.18 137.42 26.67 138.02 27.03C138.64 27.39 139.33 27.57 140.09 27.57C140.75 27.57 141.34 27.46 141.86 27.24C142.4 27.02 142.86 26.71 143.24 26.31C143.64 25.91 143.93 25.44 144.11 24.9V22.14C143.93 21.6 143.64 21.14 143.24 20.76C142.86 20.36 142.4 20.05 141.86 19.83C141.34 19.61 140.75 19.5 140.09 19.5C139.33 19.5 138.64 19.67 138.02 20.01C137.42 20.35 136.94 20.82 136.58 21.42C136.24 22.02 136.07 22.71 136.07 23.49ZM151.049 23.52C151.049 22.24 151.349 21.09 151.949 20.07C152.549 19.03 153.389 18.22 154.469 17.64C155.569 17.04 156.809 16.74 158.189 16.74C159.609 16.74 160.839 17.04 161.879 17.64C162.939 18.22 163.759 19.03 164.339 20.07C164.919 21.09 165.209 22.24 165.209 23.52C165.209 24.8 164.919 25.96 164.339 27C163.759 28.02 162.939 28.83 161.879 29.43C160.839 30.03 159.599 30.33 158.159 30.33C156.799 30.33 155.579 30.06 154.499 29.52C153.419 28.96 152.569 28.17 151.949 27.15C151.349 26.13 151.049 24.92 151.049 23.52ZM154.439 23.55C154.439 24.29 154.599 24.97 154.919 25.59C155.239 26.19 155.679 26.67 156.239 27.03C156.799 27.39 157.419 27.57 158.099 27.57C158.839 27.57 159.479 27.39 160.019 27.03C160.579 26.67 161.009 26.19 161.309 25.59C161.629 24.97 161.789 24.29 161.789 23.55C161.789 22.79 161.629 22.11 161.309 21.51C161.009 20.89 160.579 20.4 160.019 20.04C159.479 19.68 158.839 19.5 158.099 19.5C157.399 19.5 156.769 19.69 156.209 20.07C155.669 20.43 155.239 20.91 154.919 21.51C154.599 22.11 154.439 22.79 154.439 23.55ZM171.77 17.31L172.07 20.04L171.95 19.68C172.39 18.8 173.04 18.1 173.9 17.58C174.78 17.04 175.82 16.77 177.02 16.77C178.22 16.77 179.21 17.12 179.99 17.82C180.77 18.52 181.17 19.44 181.19 20.58V30H177.83V21.78C177.81 21.14 177.63 20.63 177.29 20.25C176.95 19.85 176.41 19.64 175.67 19.62C174.99 19.62 174.38 19.83 173.84 20.25C173.3 20.65 172.87 21.21 172.55 21.93C172.25 22.63 172.1 23.44 172.1 24.36V30H168.74V17.31H171.77ZM189.63 30.27C188.67 30.27 187.75 30.1 186.87 29.76C186.01 29.42 185.28 28.92 184.68 28.26L186.12 26.37C186.68 26.91 187.23 27.31 187.77 27.57C188.33 27.81 188.86 27.93 189.36 27.93C189.74 27.93 190.08 27.89 190.38 27.81C190.7 27.71 190.95 27.56 191.13 27.36C191.33 27.16 191.43 26.89 191.43 26.55C191.43 26.15 191.29 25.84 191.01 25.62C190.73 25.38 190.37 25.19 189.93 25.05C189.49 24.89 189.03 24.74 188.55 24.6C187.45 24.26 186.63 23.76 186.09 23.1C185.55 22.44 185.28 21.68 185.28 20.82C185.28 20.16 185.45 19.53 185.79 18.93C186.13 18.31 186.65 17.8 187.35 17.4C188.05 17 188.93 16.8 189.99 16.8C190.95 16.8 191.78 16.91 192.48 17.13C193.2 17.33 193.87 17.68 194.49 18.18L193.2 20.19C192.84 19.85 192.41 19.59 191.91 19.41C191.43 19.21 190.99 19.1 190.59 19.08C190.23 19.06 189.91 19.11 189.63 19.23C189.35 19.33 189.12 19.48 188.94 19.68C188.78 19.88 188.7 20.11 188.7 20.37C188.68 20.77 188.81 21.09 189.09 21.33C189.39 21.57 189.77 21.76 190.23 21.9C190.69 22.04 191.15 22.19 191.61 22.35C192.23 22.53 192.78 22.78 193.26 23.1C193.74 23.42 194.11 23.81 194.37 24.27C194.65 24.71 194.79 25.26 194.79 25.92C194.79 26.68 194.6 27.4 194.22 28.08C193.84 28.74 193.27 29.27 192.51 29.67C191.75 30.07 190.79 30.27 189.63 30.27Z"/>
</mask>
<path d="M67.11 8.28H71.19L76.59 23.76L76.02 23.52L80.22 12.75L81.84 17.49L75.84 31.02L67.11 8.28ZM77.82 8.28H81.27L87.27 23.43L86.58 23.31L91.56 8.28H95.31L86.79 30.96L77.82 8.28ZM98.7202 30V6.6H102.02V20.1L101.96 19.59C102.4 18.77 103.05 18.1 103.91 17.58C104.77 17.04 105.8 16.77 107 16.77C108.2 16.77 109.19 17.12 109.97 17.82C110.75 18.52 111.15 19.44 111.17 20.58V30H107.81V21.78C107.79 21.14 107.61 20.63 107.27 20.25C106.93 19.85 106.39 19.64 105.65 19.62C104.97 19.62 104.36 19.83 103.82 20.25C103.28 20.67 102.85 21.24 102.53 21.96C102.23 22.66 102.08 23.46 102.08 24.36V30H98.7202ZM121.14 30.33C119.94 30.33 118.85 30.08 117.87 29.58C116.91 29.08 116.15 28.34 115.59 27.36C115.03 26.36 114.75 25.13 114.75 23.67C114.75 22.23 115.04 21 115.62 19.98C116.22 18.94 117 18.14 117.96 17.58C118.94 17.02 120 16.74 121.14 16.74C122.36 16.74 123.34 16.98 124.08 17.46C124.84 17.94 125.43 18.51 125.85 19.17L125.67 19.65L126 17.31H129.09V30H125.73V26.91L126.06 27.72C125.98 27.84 125.82 28.04 125.58 28.32C125.34 28.58 125.01 28.87 124.59 29.19C124.17 29.51 123.67 29.78 123.09 30C122.53 30.22 121.88 30.33 121.14 30.33ZM122.07 27.57C122.67 27.57 123.21 27.46 123.69 27.24C124.19 27.02 124.61 26.71 124.95 26.31C125.31 25.91 125.57 25.43 125.73 24.87V22.11C125.57 21.59 125.31 21.14 124.95 20.76C124.59 20.36 124.15 20.05 123.63 19.83C123.13 19.61 122.57 19.5 121.95 19.5C121.27 19.5 120.64 19.67 120.06 20.01C119.48 20.35 119.01 20.82 118.65 21.42C118.31 22.02 118.14 22.71 118.14 23.49C118.14 24.25 118.32 24.94 118.68 25.56C119.04 26.18 119.52 26.67 120.12 27.03C120.72 27.39 121.37 27.57 122.07 27.57ZM140.06 36.33C139.02 36.33 138.13 36.21 137.39 35.97C136.65 35.73 135.99 35.41 135.41 35.01C134.85 34.63 134.32 34.23 133.82 33.81L135.8 31.5C136.38 32.04 136.99 32.49 137.63 32.85C138.29 33.21 139.08 33.39 140 33.39C140.82 33.39 141.53 33.25 142.13 32.97C142.75 32.69 143.23 32.3 143.57 31.8C143.91 31.3 144.09 30.7 144.11 30V26.85L144.32 27.48C143.98 28.26 143.36 28.93 142.46 29.49C141.56 30.05 140.44 30.33 139.1 30.33C137.94 30.33 136.87 30.04 135.89 29.46C134.91 28.86 134.13 28.05 133.55 27.03C132.97 26.01 132.68 24.86 132.68 23.58C132.68 22.26 132.98 21.09 133.58 20.07C134.2 19.03 135.01 18.22 136.01 17.64C137.03 17.04 138.11 16.74 139.25 16.74C140.37 16.74 141.36 16.94 142.22 17.34C143.1 17.74 143.76 18.24 144.2 18.84L144.02 19.32L144.38 17.31H147.47V30.06C147.47 31.24 147.15 32.3 146.51 33.24C145.89 34.2 145.02 34.95 143.9 35.49C142.8 36.05 141.52 36.33 140.06 36.33ZM136.07 23.49C136.07 24.25 136.24 24.94 136.58 25.56C136.94 26.18 137.42 26.67 138.02 27.03C138.64 27.39 139.33 27.57 140.09 27.57C140.75 27.57 141.34 27.46 141.86 27.24C142.4 27.02 142.86 26.71 143.24 26.31C143.64 25.91 143.93 25.44 144.11 24.9V22.14C143.93 21.6 143.64 21.14 143.24 20.76C142.86 20.36 142.4 20.05 141.86 19.83C141.34 19.61 140.75 19.5 140.09 19.5C139.33 19.5 138.64 19.67 138.02 20.01C137.42 20.35 136.94 20.82 136.58 21.42C136.24 22.02 136.07 22.71 136.07 23.49ZM151.049 23.52C151.049 22.24 151.349 21.09 151.949 20.07C152.549 19.03 153.389 18.22 154.469 17.64C155.569 17.04 156.809 16.74 158.189 16.74C159.609 16.74 160.839 17.04 161.879 17.64C162.939 18.22 163.759 19.03 164.339 20.07C164.919 21.09 165.209 22.24 165.209 23.52C165.209 24.8 164.919 25.96 164.339 27C163.759 28.02 162.939 28.83 161.879 29.43C160.839 30.03 159.599 30.33 158.159 30.33C156.799 30.33 155.579 30.06 154.499 29.52C153.419 28.96 152.569 28.17 151.949 27.15C151.349 26.13 151.049 24.92 151.049 23.52ZM154.439 23.55C154.439 24.29 154.599 24.97 154.919 25.59C155.239 26.19 155.679 26.67 156.239 27.03C156.799 27.39 157.419 27.57 158.099 27.57C158.839 27.57 159.479 27.39 160.019 27.03C160.579 26.67 161.009 26.19 161.309 25.59C161.629 24.97 161.789 24.29 161.789 23.55C161.789 22.79 161.629 22.11 161.309 21.51C161.009 20.89 160.579 20.4 160.019 20.04C159.479 19.68 158.839 19.5 158.099 19.5C157.399 19.5 156.769 19.69 156.209 20.07C155.669 20.43 155.239 20.91 154.919 21.51C154.599 22.11 154.439 22.79 154.439 23.55ZM171.77 17.31L172.07 20.04L171.95 19.68C172.39 18.8 173.04 18.1 173.9 17.58C174.78 17.04 175.82 16.77 177.02 16.77C178.22 16.77 179.21 17.12 179.99 17.82C180.77 18.52 181.17 19.44 181.19 20.58V30H177.83V21.78C177.81 21.14 177.63 20.63 177.29 20.25C176.95 19.85 176.41 19.64 175.67 19.62C174.99 19.62 174.38 19.83 173.84 20.25C173.3 20.65 172.87 21.21 172.55 21.93C172.25 22.63 172.1 23.44 172.1 24.36V30H168.74V17.31H171.77ZM189.63 30.27C188.67 30.27 187.75 30.1 186.87 29.76C186.01 29.42 185.28 28.92 184.68 28.26L186.12 26.37C186.68 26.91 187.23 27.31 187.77 27.57C188.33 27.81 188.86 27.93 189.36 27.93C189.74 27.93 190.08 27.89 190.38 27.81C190.7 27.71 190.95 27.56 191.13 27.36C191.33 27.16 191.43 26.89 191.43 26.55C191.43 26.15 191.29 25.84 191.01 25.62C190.73 25.38 190.37 25.19 189.93 25.05C189.49 24.89 189.03 24.74 188.55 24.6C187.45 24.26 186.63 23.76 186.09 23.1C185.55 22.44 185.28 21.68 185.28 20.82C185.28 20.16 185.45 19.53 185.79 18.93C186.13 18.31 186.65 17.8 187.35 17.4C188.05 17 188.93 16.8 189.99 16.8C190.95 16.8 191.78 16.91 192.48 17.13C193.2 17.33 193.87 17.68 194.49 18.18L193.2 20.19C192.84 19.85 192.41 19.59 191.91 19.41C191.43 19.21 190.99 19.1 190.59 19.08C190.23 19.06 189.91 19.11 189.63 19.23C189.35 19.33 189.12 19.48 188.94 19.68C188.78 19.88 188.7 20.11 188.7 20.37C188.68 20.77 188.81 21.09 189.09 21.33C189.39 21.57 189.77 21.76 190.23 21.9C190.69 22.04 191.15 22.19 191.61 22.35C192.23 22.53 192.78 22.78 193.26 23.1C193.74 23.42 194.11 23.81 194.37 24.27C194.65 24.71 194.79 25.26 194.79 25.92C194.79 26.68 194.6 27.4 194.22 28.08C193.84 28.74 193.27 29.27 192.51 29.67C191.75 30.07 190.79 30.27 189.63 30.27Z" fill="#27C1A7"/>
<path d="M67.11 8.28V7.28H65.6549L66.1764 8.6384L67.11 8.28ZM71.19 8.28L72.1342 7.95063L71.9003 7.28H71.19V8.28ZM76.59 23.76L76.2019 24.6816L78.2751 25.5545L77.5342 23.4306L76.59 23.76ZM76.02 23.52L75.0883 23.1567L74.7346 24.0638L75.6319 24.4416L76.02 23.52ZM80.22 12.75L81.1663 12.4266L80.2819 9.83895L79.2883 12.3867L80.22 12.75ZM81.84 17.49L82.7541 17.8954L82.913 17.5373L82.7863 17.1666L81.84 17.49ZM75.84 31.02L74.9064 31.3784L75.7735 33.6368L76.7541 31.4254L75.84 31.02ZM77.82 8.28V7.28H76.3491L76.8901 8.64778L77.82 8.28ZM81.27 8.28L82.1997 7.91178L81.9495 7.28H81.27V8.28ZM87.27 23.43L87.0987 24.4152L88.8568 24.721L88.1997 23.0618L87.27 23.43ZM86.58 23.31L85.6308 22.9955L85.2659 24.0965L86.4087 24.2952L86.58 23.31ZM91.56 8.28V7.28H90.8379L90.6108 7.96548L91.56 8.28ZM95.31 8.28L96.2461 8.63167L96.7539 7.28H95.31V8.28ZM86.79 30.96L85.8601 31.3278L86.814 33.7397L87.7261 31.3117L86.79 30.96ZM67.11 8.28V9.28H71.19V8.28V7.28H67.11V8.28ZM71.19 8.28L70.2458 8.60937L75.6458 24.0894L76.59 23.76L77.5342 23.4306L72.1342 7.95063L71.19 8.28ZM76.59 23.76L76.9781 22.8384L76.4081 22.5984L76.02 23.52L75.6319 24.4416L76.2019 24.6816L76.59 23.76ZM76.02 23.52L76.9517 23.8833L81.1517 13.1133L80.22 12.75L79.2883 12.3867L75.0883 23.1567L76.02 23.52ZM80.22 12.75L79.2737 13.0734L80.8937 17.8134L81.84 17.49L82.7863 17.1666L81.1663 12.4266L80.22 12.75ZM81.84 17.49L80.9259 17.0846L74.9259 30.6146L75.84 31.02L76.7541 31.4254L82.7541 17.8954L81.84 17.49ZM75.84 31.02L76.7736 30.6616L68.0436 7.9216L67.11 8.28L66.1764 8.6384L74.9064 31.3784L75.84 31.02ZM77.82 8.28V9.28H81.27V8.28V7.28H77.82V8.28ZM81.27 8.28L80.3403 8.64821L86.3403 23.7982L87.27 23.43L88.1997 23.0618L82.1997 7.91178L81.27 8.28ZM87.27 23.43L87.4413 22.4448L86.7513 22.3248L86.58 23.31L86.4087 24.2952L87.0987 24.4152L87.27 23.43ZM86.58 23.31L87.5293 23.6245L92.5093 8.59452L91.56 8.28L90.6108 7.96548L85.6308 22.9955L86.58 23.31ZM91.56 8.28V9.28H95.31V8.28V7.28H91.56V8.28ZM95.31 8.28L94.3739 7.92833L85.8539 30.6083L86.79 30.96L87.7261 31.3117L96.2461 8.63167L95.31 8.28ZM86.79 30.96L87.7199 30.5922L78.7499 7.91222L77.82 8.28L76.8901 8.64778L85.8601 31.3278L86.79 30.96ZM98.7202 30H97.7202V31H98.7202V30ZM98.7202 6.6V5.6H97.7202V6.6H98.7202ZM102.02 6.6H103.02V5.6H102.02V6.6ZM102.02 20.1L101.027 20.2168L103.02 20.1H102.02ZM101.96 19.59L101.079 19.1172L100.93 19.3944L100.967 19.7068L101.96 19.59ZM103.91 17.58L104.428 18.4357L104.435 18.4314L104.442 18.4269L103.91 17.58ZM111.17 20.58H112.17V20.5712L112.17 20.5625L111.17 20.58ZM111.17 30V31H112.17V30H111.17ZM107.81 30H106.81V31H107.81V30ZM107.81 21.78H108.81V21.7644L108.81 21.7488L107.81 21.78ZM107.27 20.25L106.508 20.8976L106.516 20.9073L106.525 20.9168L107.27 20.25ZM105.65 19.62L105.677 18.6204L105.664 18.62H105.65V19.62ZM103.82 20.25L103.206 19.4606V19.4606L103.82 20.25ZM102.53 21.96L101.616 21.5538L101.611 21.5661L102.53 21.96ZM102.08 30V31H103.08V30H102.08ZM98.7202 30H99.7202V6.6H98.7202H97.7202V30H98.7202ZM98.7202 6.6V7.6H102.02V6.6V5.6H98.7202V6.6ZM102.02 6.6H101.02V20.1H102.02H103.02V6.6H102.02ZM102.02 20.1L103.013 19.9832L102.953 19.4732L101.96 19.59L100.967 19.7068L101.027 20.2168L102.02 20.1ZM101.96 19.59L102.841 20.0628C103.19 19.4133 103.708 18.8707 104.428 18.4357L103.91 17.58L103.393 16.7243C102.392 17.3293 101.61 18.1267 101.079 19.1172L101.96 19.59ZM103.91 17.58L104.442 18.4269C105.116 18.0039 105.954 17.77 107 17.77V16.77V15.77C105.647 15.77 104.425 16.0761 103.378 16.7331L103.91 17.58ZM107 16.77V17.77C107.992 17.77 108.732 18.0528 109.302 18.5642L109.97 17.82L110.638 17.0758C109.648 16.1872 108.409 15.77 107 15.77V16.77ZM109.97 17.82L109.302 18.5642C109.856 19.0612 110.155 19.7081 110.17 20.5975L111.17 20.58L112.17 20.5625C112.146 19.1719 111.644 17.9788 110.638 17.0758L109.97 17.82ZM111.17 20.58H110.17V30H111.17H112.17V20.58H111.17ZM111.17 30V29H107.81V30V31H111.17V30ZM107.81 30H108.81V21.78H107.81H106.81V30H107.81ZM107.81 21.78L108.81 21.7488C108.784 20.9354 108.549 20.1797 108.015 19.5832L107.27 20.25L106.525 20.9168C106.671 21.0803 106.796 21.3446 106.811 21.8112L107.81 21.78ZM107.27 20.25L108.032 19.6024C107.443 18.909 106.581 18.6448 105.677 18.6204L105.65 19.62L105.623 20.6196C106.199 20.6352 106.418 20.791 106.508 20.8976L107.27 20.25ZM105.65 19.62V18.62C104.746 18.62 103.921 18.905 103.206 19.4606L103.82 20.25L104.434 21.0394C104.8 20.755 105.194 20.62 105.65 20.62V19.62ZM103.82 20.25L103.206 19.4606C102.518 19.9961 101.993 20.7064 101.616 21.5539L102.53 21.96L103.444 22.3661C103.707 21.7736 104.043 21.3439 104.434 21.0394L103.82 20.25ZM102.53 21.96L101.611 21.5661C101.249 22.4111 101.08 23.3488 101.08 24.36H102.08H103.08C103.08 23.5712 103.211 22.9089 103.449 22.3539L102.53 21.96ZM102.08 24.36H101.08V30H102.08H103.08V24.36H102.08ZM102.08 30V29H98.7202V30V31H102.08V30ZM117.87 29.58L117.408 30.4669L117.416 30.4708L117.87 29.58ZM115.59 27.36L114.718 27.8486L114.722 27.8561L115.59 27.36ZM115.62 19.98L114.754 19.4803L114.751 19.4857L115.62 19.98ZM117.96 17.58L117.464 16.7117L117.456 16.7162L117.96 17.58ZM124.08 17.46L123.536 18.299L123.546 18.3055L124.08 17.46ZM125.85 19.17L126.787 19.5211L126.962 19.054L126.694 18.6331L125.85 19.17ZM125.67 19.65L124.68 19.5104L126.607 20.0011L125.67 19.65ZM126 17.31V16.31H125.131L125.01 17.1704L126 17.31ZM129.09 17.31H130.09V16.31H129.09V17.31ZM129.09 30V31H130.09V30H129.09ZM125.73 30H124.73V31H125.73V30ZM125.73 26.91L126.656 26.5327L124.73 26.91H125.73ZM126.06 27.72L126.892 28.2747L127.186 27.8336L126.986 27.3427L126.06 27.72ZM125.58 28.32L126.315 28.9983L126.328 28.9848L126.339 28.9708L125.58 28.32ZM124.59 29.19L123.984 28.3946L124.59 29.19ZM123.09 30L122.736 29.0649L122.725 29.0692L123.09 30ZM123.69 27.24L123.287 26.3247L123.281 26.3278L123.274 26.3309L123.69 27.24ZM124.95 26.31L124.207 25.641L124.197 25.6516L124.188 25.6624L124.95 26.31ZM125.73 24.87L126.692 25.1447L126.73 25.0101V24.87H125.73ZM125.73 22.11H126.73V21.9596L126.686 21.8159L125.73 22.11ZM124.95 20.76L124.207 21.429L124.215 21.4385L124.224 21.4477L124.95 20.76ZM123.63 19.83L123.227 20.7453L123.234 20.7482L123.241 20.751L123.63 19.83ZM120.06 20.01L120.566 20.8727H120.566L120.06 20.01ZM118.65 21.42L117.793 20.9055L117.786 20.9162L117.78 20.927L118.65 21.42ZM118.68 25.56L117.815 26.0621L118.68 25.56ZM120.12 27.03L120.635 26.1725L120.12 27.03ZM121.14 30.33V29.33C120.084 29.33 119.152 29.1111 118.325 28.6892L117.87 29.58L117.416 30.4708C118.549 31.0489 119.797 31.33 121.14 31.33V30.33ZM117.87 29.58L118.332 28.6931C117.55 28.2856 116.928 27.6848 116.458 26.8639L115.59 27.36L114.722 27.8561C115.373 28.9952 116.271 29.8744 117.408 30.4669L117.87 29.58ZM115.59 27.36L116.463 26.8714C116.006 26.0562 115.75 25.0048 115.75 23.67H114.75H113.75C113.75 25.2552 114.054 26.6638 114.718 27.8486L115.59 27.36ZM114.75 23.67H115.75C115.75 22.3642 116.013 21.313 116.49 20.4743L115.62 19.98L114.751 19.4857C114.068 20.687 113.75 22.0958 113.75 23.67H114.75ZM115.62 19.98L116.486 20.4797C117.007 19.5781 117.667 18.909 118.464 18.4438L117.96 17.58L117.456 16.7162C116.334 17.371 115.434 18.3019 114.754 19.4803L115.62 19.98ZM117.96 17.58L118.456 18.4482C119.284 17.9755 120.172 17.74 121.14 17.74V16.74V15.74C119.828 15.74 118.597 16.0645 117.464 16.7118L117.96 17.58ZM121.14 16.74V17.74C122.238 17.74 123.009 17.9571 123.536 18.299L124.08 17.46L124.624 16.621C123.671 16.0029 122.482 15.74 121.14 15.74V16.74ZM124.08 17.46L123.546 18.3055C124.2 18.7184 124.677 19.1886 125.007 19.7069L125.85 19.17L126.694 18.6331C126.184 17.8314 125.48 17.1616 124.614 16.6145L124.08 17.46ZM125.85 19.17L124.914 18.8189L124.734 19.2989L125.67 19.65L126.607 20.0011L126.787 19.5211L125.85 19.17ZM125.67 19.65L126.66 19.7896L126.99 17.4496L126 17.31L125.01 17.1704L124.68 19.5104L125.67 19.65ZM126 17.31V18.31H129.09V17.31V16.31H126V17.31ZM129.09 17.31H128.09V30H129.09H130.09V17.31H129.09ZM129.09 30V29H125.73V30V31H129.09V30ZM125.73 30H126.73V26.91H125.73H124.73V30H125.73ZM125.73 26.91L124.804 27.2873L125.134 28.0973L126.06 27.72L126.986 27.3427L126.656 26.5327L125.73 26.91ZM126.06 27.72L125.228 27.1653C125.186 27.2289 125.063 27.3871 124.821 27.6692L125.58 28.32L126.339 28.9708C126.578 28.6929 126.775 28.4511 126.892 28.2747L126.06 27.72ZM125.58 28.32L124.845 27.6417C124.659 27.8437 124.378 28.0944 123.984 28.3946L124.59 29.19L125.196 29.9854C125.642 29.6456 126.021 29.3163 126.315 28.9983L125.58 28.32ZM124.59 29.19L123.984 28.3946C123.653 28.647 123.241 28.8734 122.736 29.065L123.09 30L123.445 30.935C124.1 30.6866 124.688 30.373 125.196 29.9854L124.59 29.19ZM123.09 30L122.725 29.0692C122.304 29.2343 121.783 29.33 121.14 29.33V30.33V31.33C121.978 31.33 122.756 31.2057 123.456 30.9308L123.09 30ZM122.07 27.57V28.57C122.794 28.57 123.479 28.4366 124.107 28.1491L123.69 27.24L123.274 26.3309C122.941 26.4834 122.546 26.57 122.07 26.57V27.57ZM123.69 27.24L124.093 28.1553C124.726 27.8769 125.27 27.4776 125.712 26.9576L124.95 26.31L124.188 25.6624C123.95 25.9424 123.655 26.1631 123.287 26.3247L123.69 27.24ZM124.95 26.31L125.694 26.979C126.164 26.4568 126.493 25.8388 126.692 25.1447L125.73 24.87L124.769 24.5953C124.647 25.0212 124.457 25.3632 124.207 25.641L124.95 26.31ZM125.73 24.87H126.73V22.11H125.73H124.73V24.87H125.73ZM125.73 22.11L126.686 21.8159C126.483 21.1547 126.146 20.5685 125.676 20.0723L124.95 20.76L124.224 21.4477C124.474 21.7115 124.658 22.0253 124.774 22.4041L125.73 22.11ZM124.95 20.76L125.694 20.091C125.231 19.5768 124.668 19.1832 124.02 18.909L123.63 19.83L123.241 20.751C123.632 20.9168 123.95 21.1432 124.207 21.429L124.95 20.76ZM123.63 19.83L124.033 18.9147C123.39 18.6318 122.69 18.5 121.95 18.5V19.5V20.5C122.45 20.5 122.87 20.5882 123.227 20.7453L123.63 19.83ZM121.95 19.5V18.5C121.095 18.5 120.29 18.7163 119.555 19.1473L120.06 20.01L120.566 20.8727C120.991 20.6237 121.446 20.5 121.95 20.5V19.5ZM120.06 20.01L119.555 19.1473C118.824 19.5756 118.235 20.1679 117.793 20.9055L118.65 21.42L119.508 21.9345C119.785 21.4721 120.137 21.1244 120.566 20.8727L120.06 20.01ZM118.65 21.42L117.78 20.927C117.344 21.6962 117.14 22.5602 117.14 23.49H118.14H119.14C119.14 22.8598 119.276 22.3438 119.52 21.913L118.65 21.42ZM118.14 23.49H117.14C117.14 24.4154 117.362 25.2804 117.815 26.0621L118.68 25.56L119.545 25.0579C119.279 24.5996 119.14 24.0846 119.14 23.49H118.14ZM118.68 25.56L117.815 26.0621C118.258 26.8245 118.857 27.4383 119.606 27.8875L120.12 27.03L120.635 26.1725C120.183 25.9017 119.822 25.5355 119.545 25.0579L118.68 25.56ZM120.12 27.03L119.606 27.8875C120.361 28.3408 121.189 28.57 122.07 28.57V27.57V26.57C121.551 26.57 121.079 26.4392 120.635 26.1725L120.12 27.03ZM137.39 35.97L137.081 36.9212L137.39 35.97ZM135.41 35.01L135.978 34.1868L135.971 34.1825L135.41 35.01ZM133.82 33.81L133.061 33.1592L132.403 33.9261L133.177 34.5757L133.82 33.81ZM135.8 31.5L136.481 30.7681L135.719 30.0581L135.041 30.8492L135.8 31.5ZM137.63 32.85L137.14 33.7216L137.151 33.7279L137.63 32.85ZM142.13 32.97L141.718 32.0586L141.707 32.0638L142.13 32.97ZM143.57 31.8L144.397 32.3623L143.57 31.8ZM144.11 30L145.11 30.0286L145.11 30.0143V30H144.11ZM144.11 26.85L145.059 26.5338L143.11 26.85H144.11ZM144.32 27.48L145.237 27.8796L145.39 27.5278L145.269 27.1638L144.32 27.48ZM142.46 29.49L142.988 30.3391L142.46 29.49ZM135.89 29.46L135.368 30.3129L135.374 30.3168L135.381 30.3206L135.89 29.46ZM133.55 27.03L134.419 26.5357L133.55 27.03ZM133.58 20.07L132.721 19.5579L132.718 19.563L133.58 20.07ZM136.01 17.64L136.512 18.505L136.517 18.5019L136.01 17.64ZM142.22 17.34L141.798 18.2468L141.806 18.2504L142.22 17.34ZM144.2 18.84L145.136 19.1911L145.326 18.6847L145.006 18.2486L144.2 18.84ZM144.02 19.32L143.036 19.1437L144.956 19.6711L144.02 19.32ZM144.38 17.31V16.31H143.543L143.396 17.1337L144.38 17.31ZM147.47 17.31H148.47V16.31H147.47V17.31ZM146.51 33.24L145.683 32.6772L145.676 32.6873L145.67 32.6975L146.51 33.24ZM143.9 35.49L143.466 34.5892L143.456 34.5939L143.446 34.5988L143.9 35.49ZM136.58 25.56L135.703 26.0408L135.709 26.0516L135.715 26.0621L136.58 25.56ZM138.02 27.03L137.505 27.8875L137.512 27.8912L137.518 27.8948L138.02 27.03ZM141.86 27.24L141.483 26.3138L141.47 26.319L141.86 27.24ZM143.24 26.31L142.533 25.6029L142.524 25.612L142.515 25.6213L143.24 26.31ZM144.11 24.9L145.059 25.2162L145.11 25.0623V24.9H144.11ZM144.11 22.14H145.11V21.9777L145.059 21.8238L144.11 22.14ZM143.24 20.76L142.515 21.4487L142.533 21.4673L142.551 21.485L143.24 20.76ZM141.86 19.83L141.47 20.751L141.483 20.7561L141.86 19.83ZM138.02 20.01L137.539 19.1331L137.527 19.14L138.02 20.01ZM136.58 21.42L135.722 20.9055L135.716 20.9162L135.71 20.927L136.58 21.42ZM140.06 36.33V35.33C139.092 35.33 138.312 35.2177 137.698 35.0188L137.39 35.97L137.081 36.9212C137.948 37.2023 138.948 37.33 140.06 37.33V36.33ZM137.39 35.97L137.698 35.0188C137.041 34.8056 136.47 34.5264 135.978 34.1868L135.41 35.01L134.842 35.8332C135.51 36.2936 136.259 36.6544 137.081 36.9212L137.39 35.97ZM135.41 35.01L135.971 34.1825C135.439 33.821 134.936 33.4415 134.463 33.0443L133.82 33.81L133.177 34.5757C133.704 35.0185 134.261 35.439 134.848 35.8375L135.41 35.01ZM133.82 33.81L134.579 34.4608L136.559 32.1508L135.8 31.5L135.041 30.8492L133.061 33.1592L133.82 33.81ZM135.8 31.5L135.119 32.2319C135.752 32.8216 136.425 33.3198 137.14 33.7216L137.63 32.85L138.12 31.9784C137.554 31.6602 137.008 31.2584 136.481 30.7681L135.8 31.5ZM137.63 32.85L137.151 33.7279C137.987 34.1841 138.95 34.39 140 34.39V33.39V32.39C139.21 32.39 138.592 32.2359 138.109 31.9721L137.63 32.85ZM140 33.39V34.39C140.932 34.39 141.793 34.2309 142.553 33.8762L142.13 32.97L141.707 32.0638C141.267 32.2691 140.708 32.39 140 32.39V33.39ZM142.13 32.97L142.542 33.8814C143.308 33.5353 143.941 33.0332 144.397 32.3623L143.57 31.8L142.743 31.2377C142.519 31.5668 142.192 31.8447 141.718 32.0586L142.13 32.97ZM143.57 31.8L144.397 32.3623C144.86 31.6808 145.085 30.8885 145.11 30.0286L144.11 30L143.11 29.9714C143.095 30.5115 142.96 30.9192 142.743 31.2377L143.57 31.8ZM144.11 30H145.11V26.85H144.11H143.11V30H144.11ZM144.11 26.85L143.161 27.1662L143.371 27.7962L144.32 27.48L145.269 27.1638L145.059 26.5338L144.11 26.85ZM144.32 27.48L143.403 27.0804C143.162 27.6335 142.702 28.1615 141.932 28.6409L142.46 29.49L142.988 30.3391C144.018 29.6985 144.798 28.8865 145.237 27.8796L144.32 27.48ZM142.46 29.49L141.932 28.6409C141.227 29.0793 140.302 29.33 139.1 29.33V30.33V31.33C140.578 31.33 141.893 31.0207 142.988 30.3391L142.46 29.49ZM139.1 30.33V29.33C138.116 29.33 137.222 29.0864 136.399 28.5994L135.89 29.46L135.381 30.3206C136.518 30.9936 137.764 31.33 139.1 31.33V30.33ZM135.89 29.46L136.412 28.6071C135.579 28.0973 134.918 27.412 134.419 26.5357L133.55 27.03L132.681 27.5243C133.342 28.688 134.24 29.6227 135.368 30.3129L135.89 29.46ZM133.55 27.03L134.419 26.5357C133.933 25.6798 133.68 24.7029 133.68 23.58H132.68H131.68C131.68 25.0171 132.007 26.3402 132.681 27.5243L133.55 27.03ZM132.68 23.58H133.68C133.68 22.4172 133.942 21.4261 134.442 20.577L133.58 20.07L132.718 19.563C132.017 20.7539 131.68 22.1028 131.68 23.58H132.68ZM133.58 20.07L134.439 20.5821C134.976 19.681 135.666 18.9956 136.512 18.505L136.01 17.64L135.508 16.775C134.354 17.4444 133.424 18.379 132.721 19.5579L133.58 20.07ZM136.01 17.64L136.517 18.5019C137.389 17.9887 138.295 17.74 139.25 17.74V16.74V15.74C137.925 15.74 136.67 16.0913 135.503 16.7781L136.01 17.64ZM139.25 16.74V17.74C140.25 17.74 141.092 17.9183 141.798 18.2467L142.22 17.34L142.642 16.4333C141.628 15.9617 140.49 15.74 139.25 15.74V16.74ZM142.22 17.34L141.806 18.2504C142.576 18.6001 143.081 19.0049 143.394 19.4314L144.2 18.84L145.006 18.2486C144.439 17.4751 143.624 16.8799 142.634 16.4296L142.22 17.34ZM144.2 18.84L143.264 18.4889L143.084 18.9689L144.02 19.32L144.956 19.6711L145.136 19.1911L144.2 18.84ZM144.02 19.32L145.004 19.4963L145.364 17.4863L144.38 17.31L143.396 17.1337L143.036 19.1437L144.02 19.32ZM144.38 17.31V18.31H147.47V17.31V16.31H144.38V17.31ZM147.47 17.31H146.47V30.06H147.47H148.47V17.31H147.47ZM147.47 30.06H146.47C146.47 31.0473 146.206 31.9097 145.683 32.6772L146.51 33.24L147.337 33.8028C148.094 32.6903 148.47 31.4327 148.47 30.06H147.47ZM146.51 33.24L145.67 32.6975C145.158 33.4895 144.435 34.1218 143.466 34.5892L143.9 35.49L144.334 36.3908C145.605 35.7782 146.622 34.9105 147.35 33.7825L146.51 33.24ZM143.9 35.49L143.446 34.5988C142.51 35.0753 141.391 35.33 140.06 35.33V36.33V37.33C141.649 37.33 143.09 37.0247 144.354 36.3812L143.9 35.49ZM136.07 23.49H135.07C135.07 24.4051 135.276 25.2625 135.703 26.0408L136.58 25.56L137.457 25.0792C137.204 24.6175 137.07 24.0949 137.07 23.49H136.07ZM136.58 25.56L135.715 26.0621C136.158 26.8245 136.757 27.4383 137.505 27.8875L138.02 27.03L138.534 26.1725C138.083 25.9017 137.722 25.5355 137.445 25.0579L136.58 25.56ZM138.02 27.03L137.518 27.8948C138.3 28.3487 139.165 28.57 140.09 28.57V27.57V26.57C139.495 26.57 138.98 26.4313 138.522 26.1652L138.02 27.03ZM140.09 27.57V28.57C140.861 28.57 141.587 28.4412 142.25 28.161L141.86 27.24L141.47 26.319C141.093 26.4788 140.638 26.57 140.09 26.57V27.57ZM141.86 27.24L142.237 28.1661C142.901 27.8957 143.482 27.5074 143.965 26.9987L143.24 26.31L142.515 25.6213C142.238 25.9126 141.899 26.1443 141.483 26.3139L141.86 27.24ZM143.24 26.31L143.947 27.0171C144.458 26.5066 144.83 25.9026 145.059 25.2162L144.11 24.9L143.161 24.5838C143.03 24.9774 142.822 25.3134 142.533 25.6029L143.24 26.31ZM144.11 24.9H145.11V22.14H144.11H143.11V24.9H144.11ZM144.11 22.14L145.059 21.8238C144.828 21.1334 144.451 20.5316 143.929 20.035L143.24 20.76L142.551 21.485C142.828 21.7484 143.031 22.0666 143.161 22.4562L144.11 22.14ZM143.24 20.76L143.965 20.0712C143.482 19.5626 142.901 19.1743 142.237 18.9039L141.86 19.83L141.483 20.7561C141.899 20.9257 142.238 21.1574 142.515 21.4487L143.24 20.76ZM141.86 19.83L142.25 18.909C141.587 18.6288 140.861 18.5 140.09 18.5V19.5V20.5C140.638 20.5 141.093 20.5912 141.47 20.751L141.86 19.83ZM140.09 19.5V18.5C139.175 18.5 138.317 18.7064 137.539 19.1332L138.02 20.01L138.501 20.8868C138.962 20.6336 139.485 20.5 140.09 20.5V19.5ZM138.02 20.01L137.527 19.14C136.774 19.5663 136.17 20.1598 135.722 20.9055L136.58 21.42L137.437 21.9345C137.71 21.4802 138.065 21.1337 138.513 20.88L138.02 20.01ZM136.58 21.42L135.71 20.927C135.274 21.6962 135.07 22.5602 135.07 23.49H136.07H137.07C137.07 22.8598 137.206 22.3438 137.45 21.913L136.58 21.42ZM151.949 20.07L152.811 20.577L152.815 20.5697L151.949 20.07ZM154.469 17.64L154.942 18.521L154.948 18.5179L154.469 17.64ZM161.879 17.64L161.379 18.5062L161.389 18.5118L161.399 18.5173L161.879 17.64ZM164.339 20.07L163.466 20.5571L163.47 20.5643L164.339 20.07ZM164.339 27L165.208 27.4943L165.212 27.4871L164.339 27ZM161.879 29.43L161.386 28.5597L161.379 28.5638L161.879 29.43ZM154.499 29.52L154.039 30.4078L154.045 30.4111L154.052 30.4144L154.499 29.52ZM151.949 27.15L151.087 27.657L151.091 27.6632L151.095 27.6694L151.949 27.15ZM154.919 25.59L154.03 26.0487L154.037 26.0606L154.919 25.59ZM156.239 27.03L155.698 27.8712L156.239 27.03ZM160.019 27.03L159.478 26.1888L159.471 26.1933L159.464 26.198L160.019 27.03ZM161.309 25.59L160.42 25.1313L160.415 25.1428L161.309 25.59ZM161.309 21.51L160.409 21.9456L160.417 21.9632L160.427 21.9806L161.309 21.51ZM160.019 20.04L159.464 20.872L159.471 20.8767L159.478 20.8812L160.019 20.04ZM156.209 20.07L156.764 20.9021L156.771 20.8975L156.209 20.07ZM151.049 23.52H152.049C152.049 22.4032 152.309 21.4309 152.811 20.577L151.949 20.07L151.087 19.563C150.389 20.7491 150.049 22.0768 150.049 23.52H151.049ZM151.949 20.07L152.815 20.5697C153.32 19.6944 154.022 19.0149 154.942 18.521L154.469 17.64L153.996 16.759C152.756 17.4251 151.778 18.3656 151.083 19.5703L151.949 20.07ZM154.469 17.64L154.948 18.5179C155.887 18.0059 156.959 17.74 158.189 17.74V16.74V15.74C156.659 15.74 155.252 16.0741 153.99 16.7621L154.469 17.64ZM158.189 16.74V17.74C159.466 17.74 160.517 18.0087 161.379 18.5062L161.879 17.64L162.379 16.7738C161.161 16.0713 159.752 15.74 158.189 15.74V16.74ZM161.879 17.64L161.399 18.5173C162.296 19.0082 162.979 19.6841 163.466 20.5571L164.339 20.07L165.212 19.5829C164.539 18.3759 163.582 17.4318 162.359 16.7627L161.879 17.64ZM164.339 20.07L163.47 20.5643C163.956 21.4202 164.209 22.3971 164.209 23.52H165.209H166.209C166.209 22.0829 165.882 20.7598 165.208 19.5757L164.339 20.07ZM165.209 23.52H164.209C164.209 24.6427 163.956 25.6329 163.466 26.5129L164.339 27L165.212 27.4871C165.882 26.2871 166.209 24.9573 166.209 23.52H165.209ZM164.339 27L163.47 26.5057C162.983 27.3625 162.296 28.0452 161.386 28.5597L161.879 29.43L162.372 30.3003C163.583 29.6148 164.536 28.6775 165.208 27.4943L164.339 27ZM161.879 29.43L161.379 28.5638C160.519 29.0602 159.459 29.33 158.159 29.33V30.33V31.33C159.739 31.33 161.159 30.9998 162.379 30.2962L161.879 29.43ZM158.159 30.33V29.33C156.935 29.33 155.871 29.0878 154.946 28.6256L154.499 29.52L154.052 30.4144C155.287 31.0322 156.664 31.33 158.159 31.33V30.33ZM154.499 29.52L154.959 28.6322C154.039 28.1549 153.327 27.4909 152.804 26.6306L151.949 27.15L151.095 27.6694C151.812 28.8491 152.799 29.7651 154.039 30.4078L154.499 29.52ZM151.949 27.15L152.811 26.643C152.317 25.8027 152.049 24.7746 152.049 23.52H151.049H150.049C150.049 25.0654 150.381 26.4573 151.087 27.657L151.949 27.15ZM154.439 23.55H153.439C153.439 24.4396 153.633 25.2783 154.03 26.0486L154.919 25.59L155.808 25.1314C155.565 24.6617 155.439 24.1404 155.439 23.55H154.439ZM154.919 25.59L154.037 26.0606C154.435 26.8079 154.991 27.4168 155.698 27.8712L156.239 27.03L156.78 26.1888C156.367 25.9232 156.043 25.5721 155.801 25.1194L154.919 25.59ZM156.239 27.03L155.698 27.8712C156.423 28.3372 157.232 28.57 158.099 28.57V27.57V26.57C157.606 26.57 157.175 26.4428 156.78 26.1888L156.239 27.03ZM158.099 27.57V28.57C159.008 28.57 159.847 28.3464 160.574 27.8621L160.019 27.03L159.464 26.198C159.111 26.4336 158.67 26.57 158.099 26.57V27.57ZM160.019 27.03L160.56 27.8712C161.272 27.4132 161.824 26.7966 162.203 26.0372L161.309 25.59L160.415 25.1428C160.194 25.5834 159.886 25.9268 159.478 26.1888L160.019 27.03ZM161.309 25.59L162.198 26.0486C162.595 25.2783 162.789 24.4396 162.789 23.55H161.789H160.789C160.789 24.1404 160.663 24.6617 160.42 25.1314L161.309 25.59ZM161.789 23.55H162.789C162.789 22.6455 162.597 21.8006 162.191 21.0394L161.309 21.51L160.427 21.9806C160.661 22.4194 160.789 22.9345 160.789 23.55H161.789ZM161.309 21.51L162.209 21.0744C161.832 20.2947 161.28 19.6619 160.56 19.1988L160.019 20.04L159.478 20.8812C159.878 21.1381 160.186 21.4853 160.409 21.9456L161.309 21.51ZM160.019 20.04L160.574 19.2079C159.847 18.7236 159.008 18.5 158.099 18.5V19.5V20.5C158.67 20.5 159.111 20.6364 159.464 20.872L160.019 20.04ZM158.099 19.5V18.5C157.206 18.5 156.379 18.7461 155.648 19.2425L156.209 20.07L156.771 20.8975C157.159 20.6339 157.592 20.5 158.099 20.5V19.5ZM156.209 20.07L155.654 19.2379C154.97 19.694 154.431 20.3009 154.037 21.0394L154.919 21.51L155.801 21.9806C156.048 21.5191 156.368 21.166 156.764 20.902L156.209 20.07ZM154.919 21.51L154.037 21.0394C153.631 21.8006 153.439 22.6455 153.439 23.55H154.439H155.439C155.439 22.9345 155.567 22.4194 155.801 21.9806L154.919 21.51ZM171.77 17.31L172.764 17.2008L172.666 16.31H171.77V17.31ZM172.07 20.04L171.121 20.3562L173.064 19.9308L172.07 20.04ZM171.95 19.68L171.055 19.2328L170.87 19.6033L171.001 19.9962L171.95 19.68ZM173.9 17.58L174.417 18.4357L174.423 18.4323L173.9 17.58ZM181.19 20.58H182.19V20.5712L182.19 20.5625L181.19 20.58ZM181.19 30V31H182.19V30H181.19ZM177.83 30H176.83V31H177.83V30ZM177.83 21.78H178.83V21.7644L178.829 21.7488L177.83 21.78ZM177.29 20.25L176.528 20.8976L176.536 20.9073L176.544 20.9168L177.29 20.25ZM175.67 19.62L175.697 18.6204L175.683 18.62H175.67V19.62ZM173.84 20.25L174.435 21.0536L174.444 21.0466L174.454 21.0394L173.84 20.25ZM172.55 21.93L171.636 21.5238L171.631 21.5361L172.55 21.93ZM172.1 30V31H173.1V30H172.1ZM168.74 30H167.74V31H168.74V30ZM168.74 17.31V16.31H167.74V17.31H168.74ZM171.77 17.31L170.776 17.4192L171.076 20.1492L172.07 20.04L173.064 19.9308L172.764 17.2008L171.77 17.31ZM172.07 20.04L173.018 19.7238L172.898 19.3638L171.95 19.68L171.001 19.9962L171.121 20.3562L172.07 20.04ZM171.95 19.68L172.844 20.1272C173.198 19.4201 173.715 18.8601 174.417 18.4357L173.9 17.58L173.382 16.7243C172.364 17.3399 171.582 18.1799 171.055 19.2328L171.95 19.68ZM173.9 17.58L174.423 18.4323C175.121 18.0037 175.974 17.77 177.02 17.77V16.77V15.77C175.666 15.77 174.438 16.0763 173.377 16.7277L173.9 17.58ZM177.02 16.77V17.77C178.011 17.77 178.752 18.0528 179.322 18.5642L179.99 17.82L180.658 17.0758C179.668 16.1872 178.428 15.77 177.02 15.77V16.77ZM179.99 17.82L179.322 18.5642C179.876 19.0612 180.174 19.7081 180.19 20.5975L181.19 20.58L182.19 20.5625C182.165 19.1719 181.664 17.9788 180.658 17.0758L179.99 17.82ZM181.19 20.58H180.19V30H181.19H182.19V20.58H181.19ZM181.19 30V29H177.83V30V31H181.19V30ZM177.83 30H178.83V21.78H177.83H176.83V30H177.83ZM177.83 21.78L178.829 21.7488C178.804 20.9354 178.569 20.1797 178.035 19.5832L177.29 20.25L176.544 20.9168C176.691 21.0803 176.816 21.3446 176.83 21.8112L177.83 21.78ZM177.29 20.25L178.052 19.6024C177.462 18.909 176.601 18.6448 175.697 18.6204L175.67 19.62L175.643 20.6196C176.219 20.6352 176.437 20.791 176.528 20.8976L177.29 20.25ZM175.67 19.62V18.62C174.766 18.62 173.94 18.905 173.226 19.4606L173.84 20.25L174.454 21.0394C174.819 20.755 175.214 20.62 175.67 20.62V19.62ZM173.84 20.25L173.244 19.4464C172.544 19.9657 172.014 20.6735 171.636 21.5239L172.55 21.93L173.464 22.3361C173.726 21.7465 174.056 21.3343 174.435 21.0536L173.84 20.25ZM172.55 21.93L171.631 21.5361C171.267 22.3836 171.1 23.3321 171.1 24.36H172.1H173.1C173.1 23.5479 173.232 22.8764 173.469 22.3239L172.55 21.93ZM172.1 24.36H171.1V30H172.1H173.1V24.36H172.1ZM172.1 30V29H168.74V30V31H172.1V30ZM168.74 30H169.74V17.31H168.74H167.74V30H168.74ZM168.74 17.31V18.31H171.77V17.31V16.31H168.74V17.31ZM186.87 29.76L186.502 30.69L186.509 30.6928L186.87 29.76ZM184.68 28.26L183.884 27.654L183.38 28.3164L183.94 28.9327L184.68 28.26ZM186.12 26.37L186.814 25.6502L186.005 24.8703L185.324 25.764L186.12 26.37ZM187.77 27.57L187.336 28.471L187.356 28.4805L187.376 28.4891L187.77 27.57ZM190.38 27.81L190.637 28.7762L190.658 28.7708L190.678 28.7645L190.38 27.81ZM191.13 27.36L190.423 26.6529L190.404 26.6715L190.386 26.691L191.13 27.36ZM191.01 25.62L190.359 26.3793L190.375 26.3931L190.392 26.4063L191.01 25.62ZM189.93 25.05L189.588 25.9898L189.607 25.9968L189.627 26.0029L189.93 25.05ZM188.55 24.6L188.254 25.5554L188.262 25.5578L188.27 25.56L188.55 24.6ZM186.09 23.1L185.316 23.7332L186.09 23.1ZM185.79 18.93L186.66 19.4231L186.667 19.4108L185.79 18.93ZM187.35 17.4L187.846 18.2682L187.35 17.4ZM192.48 17.13L192.18 18.084L192.196 18.089L192.212 18.0935L192.48 17.13ZM194.49 18.18L195.331 18.7201L195.816 17.9649L195.118 17.4016L194.49 18.18ZM193.2 20.19L192.513 20.917L193.39 21.7451L194.041 20.7301L193.2 20.19ZM191.91 19.41L191.525 20.3331L191.548 20.3425L191.571 20.3509L191.91 19.41ZM190.59 19.08L190.534 20.0785L190.54 20.0788L190.59 19.08ZM189.63 19.23L189.966 20.1717L189.995 20.1613L190.024 20.1491L189.63 19.23ZM188.94 19.68L188.196 19.011L188.177 19.0326L188.159 19.0553L188.94 19.68ZM188.7 20.37L189.699 20.4199L189.7 20.395V20.37H188.7ZM189.09 21.33L188.439 22.0893L188.452 22.1003L188.465 22.1109L189.09 21.33ZM190.23 21.9L190.521 20.9433L190.23 21.9ZM191.61 22.35L191.281 23.2945L191.306 23.3031L191.331 23.3103L191.61 22.35ZM193.26 23.1L192.705 23.9321L193.26 23.1ZM194.37 24.27L193.499 24.7621L193.512 24.7848L193.526 24.8069L194.37 24.27ZM194.22 28.08L195.086 28.579L195.093 28.5678L194.22 28.08ZM192.51 29.67L192.044 28.7851L192.51 29.67ZM189.63 30.27V29.27C188.791 29.27 187.993 29.122 187.23 28.8272L186.87 29.76L186.509 30.6928C187.506 31.078 188.549 31.27 189.63 31.27V30.27ZM186.87 29.76L187.237 28.83C186.514 28.5441 185.913 28.13 185.42 27.5873L184.68 28.26L183.94 28.9327C184.646 29.71 185.505 30.2959 186.502 30.69L186.87 29.76ZM184.68 28.26L185.475 28.866L186.915 26.976L186.12 26.37L185.324 25.764L183.884 27.654L184.68 28.26ZM186.12 26.37L185.426 27.0898C186.041 27.6829 186.676 28.1534 187.336 28.471L187.77 27.57L188.204 26.669C187.783 26.4666 187.319 26.1371 186.814 25.6502L186.12 26.37ZM187.77 27.57L187.376 28.4891C188.034 28.7711 188.698 28.93 189.36 28.93V27.93V26.93C189.021 26.93 188.626 26.8489 188.164 26.6509L187.77 27.57ZM189.36 27.93V28.93C189.808 28.93 190.237 28.883 190.637 28.7762L190.38 27.81L190.122 26.8438C189.922 26.897 189.671 26.93 189.36 26.93V27.93ZM190.38 27.81L190.678 28.7645C191.128 28.624 191.547 28.3915 191.873 28.029L191.13 27.36L190.386 26.691C190.353 26.7285 190.272 26.796 190.081 26.8555L190.38 27.81ZM191.13 27.36L191.837 28.0671C192.261 27.6426 192.43 27.0979 192.43 26.55H191.43H190.43C190.43 26.6224 190.419 26.6544 190.417 26.6602C190.416 26.6631 190.416 26.662 190.418 26.6588C190.42 26.6556 190.422 26.6534 190.423 26.6529L191.13 27.36ZM191.43 26.55H192.43C192.43 25.8862 192.181 25.2684 191.628 24.8337L191.01 25.62L190.392 26.4063C190.404 26.4155 190.408 26.4213 190.41 26.423C190.411 26.4245 190.412 26.4259 190.413 26.4291C190.416 26.434 190.43 26.4672 190.43 26.55H191.43ZM191.01 25.62L191.661 24.8607C191.257 24.5146 190.77 24.2678 190.233 24.0971L189.93 25.05L189.627 26.0029C189.97 26.1122 190.203 26.2454 190.359 26.3793L191.01 25.62ZM189.93 25.05L190.272 24.1102C189.81 23.9423 189.329 23.7857 188.83 23.64L188.55 24.6L188.27 25.56C188.73 25.6943 189.17 25.8377 189.588 25.9898L189.93 25.05ZM188.55 24.6L188.845 23.6446C187.869 23.3428 187.243 22.9299 186.864 22.4668L186.09 23.1L185.316 23.7332C186.017 24.5901 187.031 25.1772 188.254 25.5554L188.55 24.6ZM186.09 23.1L186.864 22.4668C186.471 21.9871 186.28 21.4513 186.28 20.82H185.28H184.28C184.28 21.9087 184.628 22.8929 185.316 23.7332L186.09 23.1ZM185.28 20.82H186.28C186.28 20.3407 186.401 19.8797 186.66 19.423L185.79 18.93L184.92 18.437C184.499 19.1803 184.28 19.9793 184.28 20.82H185.28ZM185.79 18.93L186.667 19.4108C186.906 18.9743 187.283 18.5898 187.846 18.2682L187.35 17.4L186.854 16.5318C186.016 17.0102 185.354 17.6457 184.913 18.4492L185.79 18.93ZM187.35 17.4L187.846 18.2682C188.355 17.9776 189.051 17.8 189.99 17.8V16.8V15.8C188.809 15.8 187.745 16.0224 186.854 16.5318L187.35 17.4ZM189.99 16.8V17.8C190.878 17.8 191.602 17.9022 192.18 18.084L192.48 17.13L192.78 16.176C191.958 15.9178 191.022 15.8 189.99 15.8V16.8ZM192.48 17.13L192.212 18.0935C192.792 18.2547 193.341 18.5383 193.862 18.9584L194.49 18.18L195.118 17.4016C194.398 16.8217 193.607 16.4053 192.747 16.1665L192.48 17.13ZM194.49 18.18L193.648 17.6399L192.358 19.6499L193.2 20.19L194.041 20.7301L195.331 18.7201L194.49 18.18ZM193.2 20.19L193.886 19.463C193.419 19.0218 192.868 18.6923 192.248 18.4691L191.91 19.41L191.571 20.3509C191.951 20.4877 192.26 20.6782 192.513 20.917L193.2 20.19ZM191.91 19.41L192.294 18.4869C191.738 18.2551 191.183 18.1084 190.64 18.0812L190.59 19.08L190.54 20.0788C190.796 20.0916 191.121 20.1649 191.525 20.3331L191.91 19.41ZM190.59 19.08L190.645 18.0815C190.159 18.0545 189.681 18.12 189.236 18.3109L189.63 19.23L190.024 20.1491C190.138 20.1 190.3 20.0655 190.534 20.0785L190.59 19.08ZM189.63 19.23L189.293 18.2883C188.874 18.4381 188.499 18.6752 188.196 19.011L188.94 19.68L189.683 20.349C189.741 20.2848 189.826 20.2219 189.966 20.1717L189.63 19.23ZM188.94 19.68L188.159 19.0553C187.855 19.4355 187.7 19.8867 187.7 20.37H188.7H189.7C189.7 20.3442 189.703 20.3334 189.704 20.331C189.705 20.3288 189.708 20.3206 189.721 20.3047L188.94 19.68ZM188.7 20.37L187.701 20.3201C187.667 20.9985 187.902 21.6287 188.439 22.0893L189.09 21.33L189.741 20.5707C189.725 20.5576 189.718 20.5485 189.715 20.5443C189.712 20.5402 189.71 20.5372 189.709 20.5336C189.707 20.5287 189.695 20.4974 189.699 20.4199L188.7 20.37ZM189.09 21.33L188.465 22.1109C188.886 22.4473 189.387 22.6887 189.939 22.8567L190.23 21.9L190.521 20.9433C190.153 20.8313 189.894 20.6927 189.714 20.5491L189.09 21.33ZM190.23 21.9L189.939 22.8567C190.386 22.9928 190.833 23.1387 191.281 23.2945L191.61 22.35L191.938 21.4055C191.466 21.2413 190.994 21.0872 190.521 20.9433L190.23 21.9ZM191.61 22.35L191.331 23.3103C191.865 23.4652 192.319 23.6749 192.705 23.9321L193.26 23.1L193.814 22.268C193.24 21.8851 192.595 21.5948 191.889 21.3897L191.61 22.35ZM193.26 23.1L192.705 23.9321C193.067 24.1732 193.323 24.4508 193.499 24.7621L194.37 24.27L195.24 23.7779C194.896 23.1692 194.413 22.6668 193.814 22.2679L193.26 23.1ZM194.37 24.27L193.526 24.8069C193.68 25.0488 193.79 25.4 193.79 25.92H194.79H195.79C195.79 25.12 195.619 24.3712 195.213 23.7331L194.37 24.27ZM194.79 25.92H193.79C193.79 26.5048 193.646 27.0574 193.347 27.5922L194.22 28.08L195.093 28.5678C195.554 27.7426 195.79 26.8552 195.79 25.92H194.79ZM194.22 28.08L193.353 27.581C193.079 28.0568 192.659 28.4616 192.044 28.7851L192.51 29.67L192.976 30.5549C193.881 30.0784 194.6 29.4232 195.086 28.579L194.22 28.08ZM192.51 29.67L192.044 28.7851C191.469 29.0877 190.682 29.27 189.63 29.27V30.27V31.27C190.898 31.27 192.03 31.0523 192.976 30.5549L192.51 29.67Z" fill="black" mask="url(#path-1-outside-1_28_2)"/>
<path d="M53.4277 11.5283C53.8961 11.4812 54.3021 11.487 54.8691 11.5947L55.1553 11.6611C55.2517 11.6867 55.3455 11.7143 55.4248 11.7383C55.506 11.7628 55.577 11.7852 55.6279 11.8018C55.6532 11.81 55.6741 11.8165 55.6885 11.8213C55.6957 11.8237 55.7021 11.8258 55.7061 11.8271C55.7077 11.8277 55.7089 11.8287 55.71 11.8291H55.7119V11.8301C55.7104 11.8347 55.6958 11.878 55.5596 12.2793L55.7129 11.8301L55.7236 11.833L55.7344 11.8379L56.2881 12.0547L56.2969 12.0586L56.3066 12.0625L56.3086 12.0635C56.3098 12.064 56.3115 12.0645 56.3135 12.0654C56.318 12.0674 56.3247 12.0705 56.333 12.0742C56.3495 12.0815 56.3731 12.0923 56.4023 12.1055C56.4613 12.132 56.5437 12.1692 56.6367 12.2129C56.8191 12.2985 57.0571 12.4141 57.2432 12.5215L57.4795 12.667C57.5596 12.7183 57.6378 12.7702 57.7051 12.8154C57.7734 12.8614 57.8333 12.9021 57.876 12.9316C57.8973 12.9464 57.9148 12.9585 57.9268 12.9668C57.9326 12.9709 57.9372 12.9743 57.9404 12.9766C57.942 12.9777 57.9435 12.9789 57.9443 12.9795L57.9453 12.9805H57.9463L57.9541 12.9863L57.9629 12.9932L57.9639 12.9941L57.9658 12.9951L57.9854 13.0107C57.9972 13.0204 58.0136 13.0336 58.0322 13.0498C58.0691 13.0818 58.1188 13.1286 58.1719 13.1846C58.2456 13.2623 58.3907 13.4253 58.458 13.6387L58.4824 13.7324L58.4971 13.8457C58.4998 13.8804 58.5006 13.9125 58.5 13.9424L58.4873 14.0986C58.448 14.4373 58.2506 14.6973 58.1084 14.8535C58.0322 14.9372 57.956 15.0075 57.8965 15.0605C57.8678 15.0861 57.8392 15.1114 57.8203 15.1279C57.8103 15.1367 57.8021 15.1438 57.7959 15.1494C57.7929 15.1522 57.7898 15.1547 57.7881 15.1562L57.7861 15.1582C57.7143 15.2286 57.4726 15.4352 57.2744 15.6035C57.17 15.6922 57.0688 15.7778 56.9941 15.8408C56.9569 15.8722 56.9258 15.898 56.9043 15.916C56.8936 15.925 56.8856 15.9327 56.8799 15.9375C56.8787 15.9385 56.8769 15.9386 56.876 15.9395L54.9033 17.7646L54.9043 17.7656L52.2432 20.3721L52.2402 20.376L45.8105 26.5674L44.1602 28.1836H44.1611C44.1575 28.1874 44.1521 28.1932 44.1455 28.2002C44.1319 28.2147 44.1114 28.236 44.0869 28.2617C44.038 28.313 43.9696 28.3847 43.8906 28.4648C43.813 28.5436 43.7223 28.6333 43.6289 28.7227L43.3486 28.9775C43.1731 29.1268 43.0276 29.2381 42.8828 29.3418L42.4209 29.6602C42.2975 29.7449 42.196 29.8171 42.0889 29.8887L41.7236 30.1162C41.5376 30.2236 41.2995 30.3392 41.1172 30.4248C41.0242 30.4685 40.9418 30.5057 40.8828 30.5322C40.8535 30.5454 40.83 30.5562 40.8135 30.5635C40.8052 30.5672 40.7984 30.5703 40.7939 30.5723C40.791 30.5737 40.7872 30.5752 40.7832 30.5771C40.7694 30.5838 40.7501 30.5939 40.7256 30.6055C40.6763 30.6287 40.6066 30.6606 40.5264 30.6963C40.4479 30.7312 40.3556 30.7715 40.2588 30.8105L39.9658 30.9189C39.7159 31.0006 39.4575 31.0849 39.1484 31.1699L38.8213 31.2549C38.4346 31.3496 38.0056 31.4554 37.4883 31.4805L37.2607 31.4863H35.4873C35.2765 31.4863 35.0479 31.4535 34.8867 31.4248C34.8033 31.4099 34.7312 31.395 34.6797 31.3838C34.6538 31.3782 34.632 31.3726 34.6172 31.3691C34.61 31.3675 34.6038 31.3662 34.5996 31.3652C34.5976 31.3648 34.596 31.3646 34.5947 31.3643L34.5938 31.3633L34.0605 31.2598H34.0586C34.0573 31.2595 34.055 31.2592 34.0527 31.2588C34.0483 31.2579 34.0421 31.2565 34.0342 31.2549C34.0175 31.2515 33.9926 31.2464 33.9629 31.2402C33.9036 31.2279 33.8209 31.2096 33.7275 31.1885C33.5452 31.1472 33.3048 31.0892 33.1152 31.0273C32.8608 30.9442 32.5807 30.8498 32.2676 30.7158L31.9434 30.5674C31.7698 30.4832 31.5621 30.3672 31.4053 30.2764C31.3254 30.2302 31.2559 30.188 31.2061 30.1582C31.1813 30.1434 31.1613 30.1314 31.1475 30.123C31.1464 30.1224 31.1455 30.1217 31.1445 30.1211L31.1426 30.1201C31.1414 30.1195 31.1398 30.1183 31.1377 30.1172C31.1332 30.1147 31.1265 30.1111 31.1182 30.1064C31.1014 30.0971 31.0776 30.0832 31.0479 30.0664C30.9886 30.033 30.9057 29.9864 30.8125 29.9316C30.721 29.8779 30.6152 29.8144 30.5098 29.748L30.2061 29.5459C30.0047 29.4008 29.7975 29.2262 29.626 29.0742L29.2617 28.7363L28.2646 27.7588L28.2422 27.7383L28.2256 27.7158H28.2246V27.7148H28.2236V27.7139L28.2217 27.7119C28.2181 27.7077 28.2122 27.7004 28.2041 27.6914C28.187 27.6725 28.1628 27.6477 28.1357 27.623C28.1076 27.5975 28.0829 27.578 28.0645 27.5664C28.0627 27.5653 28.061 27.5643 28.0596 27.5635C28.0586 27.5636 28.0573 27.5641 28.0557 27.5645C28.0514 27.568 28.045 27.5737 28.0361 27.582C28.0279 27.5898 28.0186 27.5988 28.0068 27.6104L27.958 27.6592C27.9527 27.6649 27.9458 27.6723 27.9375 27.6816C27.9204 27.7009 27.8992 27.7254 27.875 27.7539C27.8264 27.8111 27.7696 27.8801 27.7119 27.9502C27.6553 28.019 27.5961 28.0906 27.5479 28.1484L27.4121 28.3018L27.0635 28.6426C26.9442 28.7496 26.8382 28.8307 26.7441 28.9004L26.4932 29.0918C26.3727 29.191 26.2057 29.3273 26.0693 29.4385C26.0011 29.4941 25.9402 29.5435 25.8965 29.5791C25.8747 29.5969 25.8569 29.6112 25.8447 29.6211C25.8387 29.626 25.8333 29.6302 25.8301 29.6328C25.8287 29.6339 25.8279 29.6351 25.8271 29.6357H25.8262V29.6367H25.8252L25.8057 29.6523L25.7842 29.667L25.1182 30.1016L25.1172 30.1025C25.1164 30.1031 25.1147 30.1036 25.1133 30.1045C25.1104 30.1063 25.1066 30.1091 25.1016 30.1123C25.0912 30.119 25.0769 30.129 25.0586 30.1406C25.0221 30.1639 24.9706 30.1956 24.9121 30.2314C24.8556 30.266 24.7883 30.3059 24.7188 30.3457L24.5107 30.458L23.8457 30.7832C23.6931 30.858 23.49 30.9229 23.3506 30.9639C23.2761 30.9858 23.2093 31.0039 23.1611 31.0166C23.1369 31.023 23.1165 31.0277 23.1025 31.0312C23.1008 31.0317 23.0992 31.0318 23.0977 31.0322V31.0332H23.0967C23.0927 31.0342 23.0895 31.0355 23.0869 31.0361C23.0851 31.0366 23.0832 31.0368 23.082 31.0371L23.0137 31.0566C22.9614 31.0715 22.8884 31.0924 22.8076 31.1152L22.3145 31.252C21.8524 31.3764 21.3832 31.4628 21.0088 31.4824L20.8545 31.4863H19.6348C19.5131 31.4864 19.2214 31.504 18.9102 31.499L18.5977 31.4854C18.3247 31.4638 17.9951 31.4038 17.7471 31.3535C17.6203 31.3278 17.5091 31.3032 17.4297 31.2852C17.3901 31.2762 17.3582 31.2689 17.3359 31.2637C17.3248 31.261 17.3156 31.2593 17.3096 31.2578C17.3066 31.2571 17.3044 31.2563 17.3027 31.2559L17.3008 31.2549H17.2998L17.291 31.2529L17.2832 31.251L16.5205 31.0371L16.5166 31.0361C16.5127 31.0352 16.5069 31.033 16.5 31.0312C16.486 31.0277 16.4657 31.023 16.4414 31.0166C16.3932 31.0039 16.3265 30.9858 16.252 30.9639C16.1474 30.9331 16.0068 30.8894 15.8789 30.8379L15.7568 30.7832L14.4268 30.1318C14.2785 30.0592 14.0839 29.93 13.9482 29.8369C13.8755 29.787 13.8097 29.7416 13.7627 29.708C13.7392 29.6912 13.7204 29.6767 13.707 29.667C13.7005 29.6623 13.695 29.6589 13.6914 29.6562C13.6896 29.6549 13.6885 29.6531 13.6875 29.6523L13.6855 29.6514L13.6787 29.6465L13.6758 29.6436C13.6739 29.6421 13.6706 29.6405 13.667 29.6377C13.6596 29.6321 13.6485 29.6238 13.6348 29.6133C13.6071 29.5922 13.5674 29.5611 13.5195 29.5244C13.4239 29.4512 13.2954 29.3523 13.1631 29.25C13.031 29.1478 12.8937 29.0415 12.7822 28.9531L12.5234 28.7363L5.65039 22.002L5.28613 21.6445L5.65039 21.2881L5.76074 21.1787L5.76855 21.1709L5.77637 21.1641L6.04199 20.9346C7.36699 19.8272 8.68959 19.3336 9.96191 19.2715C11.31 19.2057 12.5495 19.6267 13.6191 20.2197C14.6879 20.8123 15.6099 21.5889 16.332 22.2695C16.6938 22.6105 17.0094 22.9316 17.2676 23.1934C17.5319 23.4614 17.7182 23.6489 17.8457 23.7559C17.8492 23.7586 17.8538 23.7623 17.8594 23.7666C17.8742 23.7781 17.8961 23.795 17.9229 23.8154C17.9765 23.8565 18.0501 23.9121 18.1299 23.9707C18.305 24.0994 18.4613 24.2063 18.5244 24.2373C18.5237 24.2368 18.5666 24.2533 18.6768 24.2773C18.7769 24.2992 18.9032 24.3207 19.043 24.3398C19.325 24.3785 19.6341 24.4033 19.8564 24.4033L19.9873 24.3994C20.3015 24.3796 20.6768 24.2893 21.1104 24.1143L21.2637 24.0449C21.6221 23.867 21.9806 23.578 22.2959 23.2773C22.4717 23.1097 22.6265 22.9462 22.7529 22.8086C22.8671 22.6843 22.9859 22.5489 23.0537 22.4824L28.2832 17.4814C29.5649 16.2594 30.8505 15.0364 31.8369 14.1055C32.33 13.6401 32.7499 13.2461 33.0566 12.9619C33.2096 12.8202 33.3364 12.7047 33.4307 12.6201C33.4776 12.578 33.5187 12.541 33.5518 12.5127C33.5756 12.4923 33.6203 12.4551 33.6621 12.4277L33.8506 12.3174C34.3643 12.0447 35.3849 11.6856 36.8955 11.5869L37.2188 11.5713C38.7889 11.5274 39.6622 11.945 39.9199 12.0713L40.0781 12.1582C40.2821 12.2756 40.6065 12.478 40.9102 12.7012C41.1138 12.8508 41.3268 13.0231 41.4941 13.1973C41.5776 13.2841 41.6619 13.3841 41.7275 13.4922C41.7892 13.5937 41.8623 13.7477 41.8623 13.9326C41.8623 14.0334 41.833 14.1117 41.8184 14.1475C41.8009 14.19 41.7808 14.2262 41.7646 14.2529C41.7322 14.3065 41.6931 14.3597 41.6553 14.4072C41.578 14.5042 41.4725 14.622 41.3496 14.752C41.1018 15.0141 40.7525 15.3592 40.3408 15.7559C39.516 16.5504 38.4176 17.5717 37.3242 18.5889C36.2284 19.6083 35.1375 20.6239 34.3203 21.4111C33.9111 21.8054 33.5758 22.1373 33.3447 22.3818C33.2696 22.4613 33.2097 22.5293 33.1621 22.584C33.1644 22.5874 33.1664 22.5912 33.1689 22.5947C33.2379 22.6923 33.3395 22.8047 33.4541 22.917C33.5664 23.027 33.6807 23.1267 33.7676 23.1992C33.8104 23.235 33.8457 23.2638 33.8701 23.2832C33.8823 23.2929 33.8924 23.3 33.8984 23.3047C33.9011 23.3068 33.903 23.3086 33.9043 23.3096L33.9062 23.3105C33.9105 23.3135 33.9152 23.3173 33.9209 23.3213C33.9422 23.336 33.9739 23.3573 34.0127 23.3838C34.0904 23.4367 34.1982 23.5097 34.3193 23.5889C34.5687 23.7518 34.8509 23.9259 35.042 24.0195C35.4642 24.2264 35.7525 24.347 36.2178 24.4082L36.4561 24.4355C36.6704 24.4551 36.8287 24.4495 37.0684 24.4102L37.0713 24.4092L37.4141 24.3477C37.4937 24.3298 37.5484 24.3122 37.6074 24.2861C37.7383 24.2283 37.8998 24.1238 38.2822 23.8564C38.287 23.8519 38.2937 23.8466 38.3008 23.8398C38.3289 23.813 38.3694 23.7739 38.4219 23.7227C38.5271 23.6199 38.6764 23.4729 38.8613 23.29C39.2314 22.9242 39.7422 22.4174 40.3281 21.8369C41.4989 20.677 42.9686 19.2243 44.2031 18.0273L44.2861 17.9463L45.6973 16.5801C46.7806 15.5344 47.0206 15.3207 47.6885 14.748L48.0059 14.4629C48.3185 14.1724 48.6197 13.8657 48.9551 13.5498C49.3806 13.149 49.8479 12.7479 50.3643 12.4951L50.8047 12.2793C50.82 12.2718 50.8333 12.2654 50.8447 12.2598L50.9111 12.2266H50.9121L50.9131 12.2256L51.2305 12.0713L51.3545 12.0156C51.6928 11.8763 52.3462 11.6749 52.9307 11.5908L53.4277 11.5283ZM50.835 12.3877C50.8046 12.4978 50.7816 12.6569 50.8223 12.8271L51.0068 12.7373L50.8975 12.5127L50.835 12.3877Z" fill="#27C1A7" stroke="black"/>
</svg>
